<svg width="19" height="18" viewBox="0 0 19 18" fill="none" xmlns="http://www.w3.org/2000/svg">
<g clip-path="url(#clip0_390_400)">
<path d="M12.6 6.8C12.6 7.67521 12.2523 8.51458 11.6335 9.13345C11.0146 9.75232 10.1752 10.1 9.3 10.1C8.42479 10.1 7.58542 9.75232 6.96655 9.13345C6.34768 8.51458 6 7.67521 6 6.8C6 5.92479 6.34768 5.08542 6.96655 4.46655C7.58542 3.84768 8.42479 3.5 9.3 3.5C10.1752 3.5 11.0146 3.84768 11.6335 4.46655C12.2523 5.08542 12.6 5.92479 12.6 6.8Z" fill="black"/>
<path fill-rule="evenodd" clip-rule="evenodd" d="M0.5 9.00001C0.5 6.66611 1.42714 4.42779 3.07746 2.77747C4.72778 1.12715 6.96609 0.200012 9.3 0.200012C11.6339 0.200012 13.8722 1.12715 15.5225 2.77747C17.1729 4.42779 18.1 6.66611 18.1 9.00001C18.1 11.3339 17.1729 13.5722 15.5225 15.2226C13.8722 16.8729 11.6339 17.8 9.3 17.8C6.96609 17.8 4.72778 16.8729 3.07746 15.2226C1.42714 13.5722 0.5 11.3339 0.5 9.00001ZM9.3 1.30001C7.84996 1.30009 6.4294 1.70961 5.20184 2.48144C3.97428 3.25327 2.98961 4.35604 2.36116 5.66283C1.73271 6.96961 1.48603 8.42729 1.6495 9.86808C1.81297 11.3089 2.37996 12.6742 3.2852 13.807C4.0662 12.5486 5.7855 11.2 9.3 11.2C12.8145 11.2 14.5327 12.5475 15.3148 13.807C16.22 12.6742 16.787 11.3089 16.9505 9.86808C17.114 8.42729 16.8673 6.96961 16.2388 5.66283C15.6104 4.35604 14.6257 3.25327 13.3982 2.48144C12.1706 1.70961 10.75 1.30009 9.3 1.30001Z" fill="black"/>
</g>
<defs>
<clipPath id="clip0_390_400">
<rect width="17.6" height="17.6" fill="white" transform="translate(0.5 0.200012)"/>
</clipPath>
</defs>
</svg>
