<svg width="92" height="93" viewBox="0 0 92 93" fill="none" xmlns="http://www.w3.org/2000/svg">
<path d="M84.3219 70.1317C84.3219 72.9185 82.7694 78.2852 79.281 81.233C78.5834 81.7697 77.8857 81.4668 78.1924 80.6848C79.2082 78.2008 81.5312 72.4547 80.4426 71.1322C79.6721 70.1278 76.4904 70.2045 73.7764 70.4345C72.5382 70.5917 71.4496 70.6645 70.6062 70.837C69.8242 70.8983 69.6671 70.2122 70.4491 69.6755C71.4678 68.9571 72.5932 68.4034 73.784 68.0348C78.1924 66.7162 83.2869 67.5097 84.0191 68.353C84.1571 68.514 84.3219 68.9702 84.3219 70.1317ZM76.9542 75.0882C75.9463 75.8654 74.8843 76.57 73.7764 77.1965C65.6421 82.084 55.1042 84.6447 45.954 84.6447C31.2225 84.6447 18.0474 79.2128 8.05005 70.124C7.19138 69.4263 7.90055 68.4143 8.90488 68.9625C19.6765 75.2492 33.0089 79.0518 46.8089 79.0518C55.4952 79.0518 64.8562 77.4265 73.7764 73.9305C74.4012 73.6967 75.0989 73.3785 75.7084 73.1562C77.1152 72.5237 78.3534 74.0838 76.9542 75.0882ZM53.3025 32.8065C53.3025 28.816 53.4636 26.4662 52.1411 24.4498C50.9681 22.79 48.9479 21.7933 46.1265 21.9505C43.0675 22.1192 39.7824 24.124 38.9467 27.8002C38.7819 28.6435 38.2912 29.4715 37.2715 29.6517L27.9374 28.4633C27.2704 28.31 26.2545 27.8002 26.588 26.4662C28.5929 15.9207 37.605 12.2445 46.1304 11.75H48.1314C52.808 11.75 58.8187 13.0878 62.6636 16.5953C67.3287 20.95 66.8304 26.7997 66.8304 33.1553V48.2088C66.8304 52.7245 68.6627 54.7255 70.5027 57.0792C71.0011 57.9187 71.1736 58.9077 70.334 59.59C67.919 61.7431 65.4692 63.8568 62.9855 65.9303C62.3147 66.4402 61.1111 66.4938 60.6472 66.1028C57.6956 63.6303 56.9749 62.258 55.1464 59.7472C51.9647 63.086 49.2929 64.9298 46.115 65.9303C43.8805 66.499 41.582 66.7773 39.2764 66.7583C31.2647 66.7583 24.9205 61.7635 24.9205 51.885C24.9205 44.0305 29.0989 38.6907 35.2706 36.1645C41.4422 33.6345 50.4122 32.8295 53.3025 32.8142M51.4741 52.7168C53.4674 49.3742 53.3025 46.6372 53.3025 40.5077C50.8032 40.5077 48.2962 40.6802 46.1304 41.19C42.1246 42.3515 38.9429 44.87 38.9429 50.2175C38.9429 54.3958 41.1202 57.2402 44.7926 57.2402C45.2986 57.2402 45.7432 57.1827 46.1265 57.0677C48.6949 56.3547 50.2972 55.0667 51.4741 52.7168Z" fill="#808080"/>
</svg>
