<svg width="548" height="566" viewBox="0 0 548 566" fill="none" xmlns="http://www.w3.org/2000/svg">
<ellipse cx="274" cy="453.5" rx="274" ry="31.5" fill="#1EA707" fill-opacity="0.31"/>
<g opacity="0.37">
<path d="M20 454.242L49.4995 441.99L73 432.99L140 432.99L419 454.242L169.5 454.242L20 454.242Z" fill="#81817F"/>
</g>
<path d="M105 174.61L172.917 195.11L212 174.61H486L425.951 453.61H172.917L105 174.61Z" fill="#C3FFB9"/>
<path d="M105 174.126L172.5 194.61L211.5 174.126L211.5 453.61L172.5 453.61L105 174.126Z" fill="#685555"/>
<path d="M108.601 189.036C106.988 182.356 113.154 176.405 119.773 178.256L163.253 190.41C166.902 191.43 169.521 194.626 169.805 198.403L189 453.61L172.5 453.61L108.601 189.036Z" fill="#665A5A"/>
<g filter="url(#filter0_f_543_27)">
<rect x="168" y="445.61" width="258" height="17" rx="8.5" fill="url(#paint0_radial_543_27)" fill-opacity="0.12"/>
</g>
<g opacity="0.6">
<path d="M280.122 313.993C278.102 313.993 276.364 313.584 274.906 312.766C273.457 311.939 272.341 310.772 271.557 309.263C270.773 307.746 270.381 305.952 270.381 303.881C270.381 301.861 270.773 300.088 271.557 298.563C272.341 297.037 273.445 295.848 274.868 294.996C276.3 294.144 277.979 293.718 279.905 293.718C281.2 293.718 282.406 293.926 283.523 294.344C284.648 294.753 285.628 295.371 286.463 296.198C287.307 297.024 287.963 298.064 288.432 299.317C288.901 300.561 289.135 302.019 289.135 303.689V305.185H272.554V301.81H284.009C284.009 301.026 283.838 300.331 283.497 299.726C283.156 299.121 282.683 298.648 282.078 298.307C281.482 297.958 280.787 297.783 279.994 297.783C279.168 297.783 278.435 297.975 277.795 298.358C277.165 298.733 276.67 299.24 276.312 299.88C275.955 300.51 275.771 301.213 275.763 301.989V305.198C275.763 306.169 275.942 307.009 276.3 307.716C276.666 308.424 277.182 308.969 277.847 309.353C278.511 309.736 279.3 309.928 280.212 309.928C280.817 309.928 281.371 309.843 281.874 309.672C282.376 309.502 282.807 309.246 283.165 308.905C283.523 308.564 283.795 308.147 283.983 307.652L289.02 307.985C288.764 309.195 288.24 310.252 287.447 311.155C286.663 312.05 285.649 312.749 284.405 313.252C283.169 313.746 281.741 313.993 280.122 313.993ZM337.27 313.61V310.362L346.884 298.46V298.32H337.603V293.973H353.442V297.514L344.417 309.122V309.263H353.775V313.61H337.27ZM363.538 313.98C362.286 313.98 361.169 313.763 360.189 313.328C359.209 312.885 358.433 312.233 357.862 311.372C357.3 310.503 357.018 309.421 357.018 308.125C357.018 307.034 357.219 306.118 357.619 305.377C358.02 304.635 358.565 304.039 359.256 303.587C359.946 303.135 360.73 302.794 361.608 302.564C362.494 302.334 363.423 302.172 364.395 302.078C365.537 301.959 366.457 301.848 367.156 301.746C367.855 301.635 368.362 301.473 368.678 301.26C368.993 301.047 369.151 300.732 369.151 300.314V300.237C369.151 299.428 368.895 298.801 368.384 298.358C367.881 297.915 367.165 297.693 366.236 297.693C365.256 297.693 364.476 297.911 363.896 298.345C363.317 298.772 362.933 299.308 362.746 299.956L357.709 299.547C357.964 298.354 358.467 297.323 359.217 296.453C359.967 295.576 360.935 294.902 362.119 294.433C363.313 293.956 364.693 293.718 366.261 293.718C367.352 293.718 368.396 293.845 369.393 294.101C370.399 294.357 371.29 294.753 372.065 295.29C372.849 295.827 373.467 296.517 373.919 297.361C374.371 298.196 374.597 299.198 374.597 300.365V313.61H369.432V310.887H369.278C368.963 311.5 368.541 312.041 368.013 312.51C367.484 312.97 366.849 313.333 366.108 313.597C365.366 313.853 364.51 313.98 363.538 313.98ZM365.098 310.222C365.899 310.222 366.607 310.064 367.22 309.749C367.834 309.425 368.315 308.99 368.665 308.445C369.014 307.899 369.189 307.282 369.189 306.591V304.507C369.018 304.618 368.784 304.72 368.486 304.814C368.196 304.899 367.868 304.98 367.501 305.057C367.135 305.125 366.768 305.189 366.402 305.249C366.036 305.3 365.703 305.347 365.405 305.389C364.766 305.483 364.207 305.632 363.73 305.837C363.253 306.041 362.882 306.318 362.618 306.668C362.354 307.009 362.222 307.435 362.222 307.946C362.222 308.688 362.49 309.255 363.027 309.647C363.572 310.03 364.263 310.222 365.098 310.222ZM384.421 313.98C383.168 313.98 382.052 313.763 381.072 313.328C380.092 312.885 379.316 312.233 378.745 311.372C378.183 310.503 377.901 309.421 377.901 308.125C377.901 307.034 378.102 306.118 378.502 305.377C378.903 304.635 379.448 304.039 380.138 303.587C380.829 303.135 381.613 302.794 382.491 302.564C383.377 302.334 384.306 302.172 385.278 302.078C386.42 301.959 387.34 301.848 388.039 301.746C388.738 301.635 389.245 301.473 389.56 301.26C389.876 301.047 390.033 300.732 390.033 300.314V300.237C390.033 299.428 389.778 298.801 389.266 298.358C388.763 297.915 388.048 297.693 387.119 297.693C386.138 297.693 385.359 297.911 384.779 298.345C384.2 298.772 383.816 299.308 383.629 299.956L378.592 299.547C378.847 298.354 379.35 297.323 380.1 296.453C380.85 295.576 381.817 294.902 383.002 294.433C384.195 293.956 385.576 293.718 387.144 293.718C388.235 293.718 389.279 293.845 390.276 294.101C391.282 294.357 392.173 294.753 392.948 295.29C393.732 295.827 394.35 296.517 394.802 297.361C395.254 298.196 395.479 299.198 395.479 300.365V313.61H390.315V310.887H390.161C389.846 311.5 389.424 312.041 388.896 312.51C388.367 312.97 387.732 313.333 386.991 313.597C386.249 313.853 385.393 313.98 384.421 313.98ZM385.981 310.222C386.782 310.222 387.489 310.064 388.103 309.749C388.717 309.425 389.198 308.99 389.548 308.445C389.897 307.899 390.072 307.282 390.072 306.591V304.507C389.901 304.618 389.667 304.72 389.369 304.814C389.079 304.899 388.751 304.98 388.384 305.057C388.018 305.125 387.651 305.189 387.285 305.249C386.918 305.3 386.586 305.347 386.288 305.389C385.648 305.483 385.09 305.632 384.613 305.837C384.136 306.041 383.765 306.318 383.501 306.668C383.237 307.009 383.104 307.435 383.104 307.946C383.104 308.688 383.373 309.255 383.91 309.647C384.455 310.03 385.146 310.222 385.981 310.222ZM399.705 313.61V293.973H404.984V297.399H405.189C405.547 296.181 406.148 295.26 406.991 294.638C407.835 294.007 408.807 293.692 409.906 293.692C410.179 293.692 410.473 293.709 410.788 293.743C411.104 293.777 411.381 293.824 411.619 293.884V298.716C411.364 298.639 411.01 298.571 410.558 298.512C410.107 298.452 409.693 298.422 409.318 298.422C408.517 298.422 407.801 298.597 407.17 298.946C406.548 299.287 406.054 299.764 405.688 300.378C405.33 300.992 405.151 301.699 405.151 302.5V313.61H399.705Z" fill="black"/>
<path d="M292.791 313.61V287.428H303.274C305.2 287.428 306.807 287.713 308.094 288.284C309.381 288.855 310.348 289.648 310.996 290.662C311.643 291.668 311.967 292.827 311.967 294.139C311.967 295.162 311.763 296.061 311.354 296.837C310.945 297.604 310.382 298.235 309.666 298.729C308.959 299.215 308.149 299.56 307.237 299.764V300.02C308.234 300.063 309.168 300.344 310.037 300.864C310.915 301.384 311.626 302.112 312.172 303.05C312.717 303.979 312.99 305.087 312.99 306.374C312.99 307.763 312.645 309.003 311.955 310.094C311.273 311.176 310.263 312.033 308.925 312.664C307.587 313.294 305.938 313.61 303.977 313.61H292.791ZM298.327 309.084H302.839C304.382 309.084 305.507 308.79 306.214 308.202C306.922 307.605 307.276 306.813 307.276 305.824C307.276 305.1 307.101 304.46 306.751 303.907C306.402 303.353 305.903 302.918 305.256 302.603C304.616 302.287 303.854 302.13 302.967 302.13H298.327V309.084ZM298.327 298.384H302.43C303.189 298.384 303.862 298.252 304.45 297.987C305.047 297.715 305.516 297.331 305.857 296.837C306.206 296.343 306.381 295.75 306.381 295.06C306.381 294.114 306.044 293.351 305.371 292.772C304.706 292.192 303.76 291.902 302.533 291.902H298.327V298.384ZM322.089 313.98C320.836 313.98 319.72 313.763 318.74 313.328C317.76 312.885 316.984 312.233 316.413 311.372C315.85 310.503 315.569 309.421 315.569 308.125C315.569 307.034 315.77 306.118 316.17 305.377C316.571 304.635 317.116 304.039 317.806 303.587C318.497 303.135 319.281 302.794 320.159 302.564C321.045 302.334 321.974 302.172 322.946 302.078C324.088 301.959 325.008 301.848 325.707 301.746C326.406 301.635 326.913 301.473 327.228 301.26C327.544 301.047 327.701 300.732 327.701 300.314V300.237C327.701 299.428 327.446 298.801 326.934 298.358C326.431 297.915 325.716 297.693 324.787 297.693C323.806 297.693 323.027 297.911 322.447 298.345C321.868 298.772 321.484 299.308 321.297 299.956L316.26 299.547C316.515 298.354 317.018 297.323 317.768 296.453C318.518 295.576 319.485 294.902 320.67 294.433C321.863 293.956 323.244 293.718 324.812 293.718C325.903 293.718 326.947 293.845 327.944 294.101C328.95 294.357 329.841 294.753 330.616 295.29C331.4 295.827 332.018 296.517 332.47 297.361C332.922 298.196 333.147 299.198 333.147 300.365V313.61H327.983V310.887H327.829C327.514 311.5 327.092 312.041 326.564 312.51C326.035 312.97 325.4 313.333 324.659 313.597C323.917 313.853 323.061 313.98 322.089 313.98ZM323.649 310.222C324.45 310.222 325.157 310.064 325.771 309.749C326.385 309.425 326.866 308.99 327.216 308.445C327.565 307.899 327.74 307.282 327.74 306.591V304.507C327.569 304.618 327.335 304.72 327.037 304.814C326.747 304.899 326.419 304.98 326.052 305.057C325.686 305.125 325.319 305.189 324.953 305.249C324.586 305.3 324.254 305.347 323.956 305.389C323.316 305.483 322.758 305.632 322.281 305.837C321.804 306.041 321.433 306.318 321.169 306.668C320.904 307.009 320.772 307.435 320.772 307.946C320.772 308.688 321.041 309.255 321.578 309.647C322.123 310.03 322.814 310.222 323.649 310.222Z" fill="#1EA707"/>
</g>
<path d="M313.5 212.5C301.167 67 277.5 -143.5 249 174.706" stroke="#1EA707" stroke-width="15"/>
<path d="M399.5 207C399.5 148 368.5 -141.5 335 175.5" stroke="#1EA707" stroke-width="15"/>
<path d="M299.756 335.61V326.882H302.807C303.415 326.882 303.917 326.987 304.311 327.198C304.706 327.405 305 327.685 305.194 328.037C305.387 328.387 305.483 328.774 305.483 329.201C305.483 329.576 305.417 329.885 305.283 330.13C305.152 330.374 304.979 330.567 304.763 330.709C304.55 330.851 304.319 330.956 304.069 331.024V331.11C304.336 331.127 304.604 331.22 304.874 331.391C305.144 331.561 305.37 331.806 305.551 332.124C305.733 332.442 305.824 332.831 305.824 333.291C305.824 333.729 305.725 334.122 305.526 334.472C305.327 334.821 305.013 335.098 304.584 335.303C304.155 335.507 303.597 335.61 302.909 335.61H299.756ZM300.813 334.672H302.909C303.6 334.672 304.09 334.539 304.38 334.272C304.672 334.002 304.819 333.675 304.819 333.291C304.819 332.996 304.743 332.723 304.593 332.473C304.442 332.22 304.228 332.019 303.949 331.868C303.671 331.715 303.341 331.638 302.961 331.638H300.813V334.672ZM300.813 330.718H302.773C303.091 330.718 303.378 330.655 303.634 330.53C303.892 330.405 304.097 330.229 304.248 330.002C304.401 329.774 304.478 329.507 304.478 329.201C304.478 328.817 304.344 328.492 304.077 328.225C303.81 327.955 303.387 327.82 302.807 327.82H300.813V330.718ZM308.072 338.064C307.902 338.064 307.75 338.05 307.616 338.022C307.483 337.996 307.39 337.97 307.339 337.945L307.595 337.059C307.839 337.121 308.055 337.144 308.243 337.127C308.43 337.11 308.596 337.026 308.741 336.875C308.889 336.728 309.024 336.487 309.146 336.155L309.333 335.644L306.913 329.064H308.004L309.811 334.28H309.879L311.686 329.064H312.777L309.998 336.564C309.873 336.902 309.718 337.182 309.534 337.404C309.349 337.628 309.135 337.794 308.89 337.902C308.649 338.01 308.376 338.064 308.072 338.064ZM319.201 335.61L316.814 326.882H317.888L319.712 333.99H319.797L321.655 326.882H322.848L324.706 333.99H324.792L326.615 326.882H327.689L325.303 335.61H324.212L322.286 328.655H322.218L320.292 335.61H319.201ZM328.87 335.61V329.064H329.875V335.61H328.87ZM329.381 327.973C329.185 327.973 329.016 327.907 328.874 327.773C328.735 327.639 328.665 327.479 328.665 327.291C328.665 327.104 328.735 326.943 328.874 326.81C329.016 326.676 329.185 326.61 329.381 326.61C329.577 326.61 329.745 326.676 329.884 326.81C330.026 326.943 330.097 327.104 330.097 327.291C330.097 327.479 330.026 327.639 329.884 327.773C329.745 327.907 329.577 327.973 329.381 327.973ZM332.723 331.672V335.61H331.717V329.064H332.689V330.087H332.774C332.928 329.755 333.161 329.487 333.473 329.286C333.786 329.081 334.189 328.979 334.683 328.979C335.126 328.979 335.514 329.07 335.847 329.252C336.179 329.431 336.438 329.703 336.622 330.07C336.807 330.434 336.899 330.894 336.899 331.451V335.61H335.893V331.519C335.893 331.005 335.76 330.604 335.493 330.317C335.226 330.027 334.859 329.882 334.393 329.882C334.072 329.882 333.786 329.952 333.533 330.091C333.283 330.23 333.085 330.434 332.94 330.701C332.795 330.968 332.723 331.291 332.723 331.672ZM341.379 338.201C340.893 338.201 340.475 338.138 340.126 338.013C339.777 337.891 339.485 337.729 339.252 337.527C339.022 337.328 338.839 337.115 338.703 336.888L339.504 336.326C339.595 336.445 339.71 336.581 339.849 336.735C339.988 336.891 340.179 337.026 340.42 337.139C340.664 337.256 340.984 337.314 341.379 337.314C341.907 337.314 342.343 337.186 342.687 336.931C343.031 336.675 343.203 336.274 343.203 335.729V334.399H343.118C343.044 334.519 342.939 334.666 342.802 334.843C342.669 335.016 342.475 335.171 342.223 335.307C341.973 335.441 341.635 335.507 341.208 335.507C340.68 335.507 340.206 335.382 339.785 335.132C339.368 334.882 339.037 334.519 338.792 334.041C338.551 333.564 338.43 332.985 338.43 332.303C338.43 331.632 338.548 331.049 338.784 330.551C339.02 330.051 339.348 329.665 339.768 329.392C340.189 329.117 340.674 328.979 341.225 328.979C341.652 328.979 341.99 329.05 342.24 329.192C342.493 329.331 342.686 329.49 342.819 329.669C342.956 329.845 343.061 329.99 343.135 330.104H343.237V329.064H344.208V335.797C344.208 336.36 344.081 336.817 343.825 337.169C343.572 337.524 343.231 337.784 342.802 337.949C342.376 338.117 341.902 338.201 341.379 338.201ZM341.345 334.604C341.748 334.604 342.089 334.512 342.368 334.327C342.646 334.142 342.858 333.877 343.002 333.53C343.147 333.184 343.22 332.769 343.22 332.286C343.22 331.814 343.149 331.398 343.007 331.037C342.865 330.676 342.654 330.394 342.376 330.189C342.098 329.985 341.754 329.882 341.345 329.882C340.919 329.882 340.564 329.99 340.279 330.206C339.998 330.422 339.787 330.712 339.645 331.076C339.505 331.439 339.436 331.843 339.436 332.286C339.436 332.74 339.507 333.142 339.649 333.492C339.794 333.838 340.007 334.111 340.288 334.31C340.572 334.506 340.924 334.604 341.345 334.604ZM350.686 330.53L349.782 330.786C349.725 330.635 349.642 330.489 349.531 330.347C349.423 330.202 349.275 330.083 349.088 329.989C348.9 329.895 348.66 329.848 348.368 329.848C347.967 329.848 347.633 329.941 347.366 330.125C347.102 330.307 346.97 330.539 346.97 330.82C346.97 331.07 347.061 331.267 347.243 331.412C347.424 331.557 347.708 331.678 348.095 331.774L349.066 332.013C349.652 332.155 350.088 332.372 350.375 332.665C350.662 332.955 350.805 333.328 350.805 333.786C350.805 334.161 350.697 334.496 350.481 334.791C350.268 335.087 349.97 335.32 349.586 335.49C349.203 335.661 348.757 335.746 348.248 335.746C347.581 335.746 347.028 335.601 346.591 335.311C346.153 335.022 345.876 334.598 345.76 334.041L346.714 333.803C346.805 334.155 346.977 334.419 347.23 334.595C347.485 334.772 347.819 334.86 348.231 334.86C348.7 334.86 349.072 334.76 349.348 334.561C349.626 334.36 349.765 334.118 349.765 333.837C349.765 333.61 349.686 333.419 349.527 333.266C349.368 333.11 349.123 332.993 348.794 332.916L347.703 332.661C347.103 332.519 346.663 332.299 346.382 332C346.103 331.699 345.964 331.323 345.964 330.871C345.964 330.502 346.068 330.175 346.275 329.891C346.485 329.607 346.771 329.384 347.132 329.222C347.495 329.06 347.907 328.979 348.368 328.979C349.015 328.979 349.524 329.121 349.893 329.405C350.265 329.689 350.529 330.064 350.686 330.53ZM355.353 327.82V326.882H361.898V327.82H359.154V335.61H358.097V327.82H355.353ZM365.188 335.746C364.558 335.746 364.013 335.607 363.556 335.328C363.102 335.047 362.751 334.655 362.504 334.152C362.259 333.647 362.137 333.059 362.137 332.388C362.137 331.718 362.259 331.127 362.504 330.615C362.751 330.101 363.094 329.701 363.535 329.414C363.978 329.124 364.495 328.979 365.086 328.979C365.427 328.979 365.763 329.036 366.096 329.149C366.428 329.263 366.731 329.448 367.004 329.703C367.276 329.956 367.494 330.291 367.656 330.709C367.817 331.127 367.898 331.641 367.898 332.252V332.678H362.853V331.809H366.876C366.876 331.439 366.802 331.11 366.654 330.82C366.509 330.53 366.302 330.301 366.032 330.134C365.765 329.966 365.45 329.882 365.086 329.882C364.685 329.882 364.339 329.982 364.046 330.181C363.756 330.377 363.533 330.632 363.377 330.948C363.221 331.263 363.143 331.601 363.143 331.962V332.541C363.143 333.036 363.228 333.455 363.398 333.799C363.572 334.139 363.812 334.399 364.119 334.578C364.425 334.755 364.782 334.843 365.188 334.843C365.452 334.843 365.691 334.806 365.904 334.732C366.12 334.655 366.306 334.541 366.462 334.391C366.619 334.237 366.739 334.047 366.825 333.82L367.796 334.093C367.694 334.422 367.522 334.712 367.281 334.962C367.039 335.209 366.741 335.402 366.386 335.541C366.031 335.678 365.631 335.746 365.188 335.746ZM372.087 335.746C371.474 335.746 370.945 335.601 370.502 335.311C370.059 335.022 369.718 334.622 369.479 334.114C369.241 333.605 369.121 333.024 369.121 332.371C369.121 331.706 369.244 331.12 369.488 330.611C369.735 330.1 370.079 329.701 370.519 329.414C370.962 329.124 371.479 328.979 372.07 328.979C372.531 328.979 372.945 329.064 373.315 329.235C373.684 329.405 373.987 329.644 374.222 329.951C374.458 330.257 374.604 330.615 374.661 331.024H373.656C373.579 330.726 373.408 330.462 373.144 330.232C372.883 329.999 372.531 329.882 372.087 329.882C371.695 329.882 371.352 329.985 371.056 330.189C370.763 330.391 370.535 330.676 370.37 331.046C370.208 331.412 370.127 331.843 370.127 332.337C370.127 332.843 370.207 333.283 370.366 333.658C370.528 334.033 370.755 334.324 371.048 334.532C371.343 334.739 371.69 334.843 372.087 334.843C372.349 334.843 372.586 334.797 372.799 334.706C373.012 334.615 373.192 334.485 373.34 334.314C373.488 334.144 373.593 333.939 373.656 333.701H374.661C374.604 334.087 374.464 334.435 374.239 334.745C374.018 335.051 373.724 335.296 373.357 335.478C372.994 335.657 372.57 335.746 372.087 335.746ZM377.137 331.672V335.61H376.131V326.882H377.137V330.087H377.222C377.376 329.749 377.606 329.48 377.913 329.282C378.222 329.08 378.634 328.979 379.148 328.979C379.594 328.979 379.985 329.068 380.32 329.247C380.656 329.424 380.915 329.695 381.1 330.061C381.288 330.425 381.381 330.888 381.381 331.451V335.61H380.376V331.519C380.376 330.999 380.241 330.597 379.971 330.313C379.704 330.026 379.333 329.882 378.859 329.882C378.529 329.882 378.234 329.952 377.972 330.091C377.714 330.23 377.509 330.434 377.359 330.701C377.211 330.968 377.137 331.291 377.137 331.672Z" fill="#5E5B5B"/>
<defs>
<filter id="filter0_f_543_27" x="164" y="441.61" width="266" height="25" filterUnits="userSpaceOnUse" color-interpolation-filters="sRGB">
<feFlood flood-opacity="0" result="BackgroundImageFix"/>
<feBlend mode="normal" in="SourceGraphic" in2="BackgroundImageFix" result="shape"/>
<feGaussianBlur stdDeviation="2" result="effect1_foregroundBlur_543_27"/>
</filter>
<radialGradient id="paint0_radial_543_27" cx="0" cy="0" r="1" gradientUnits="userSpaceOnUse" gradientTransform="translate(126.483 454.61) rotate(-0.0956468) scale(299.518 19.7356)">
<stop stop-color="#322E2E"/>
<stop offset="1" stop-color="#988D8D"/>
</radialGradient>
</defs>
</svg>
