<svg width="548" height="566" viewBox="0 0 548 566" fill="none" xmlns="http://www.w3.org/2000/svg">
<ellipse cx="274" cy="453.5" rx="274" ry="31.5" fill="#1EA707" fill-opacity="0.31"/>
<g opacity="0.37">
<path d="M20 454.242L49.4995 441.99L73 432.99L140 432.99L419 454.242L169.5 454.242L20 454.242Z" fill="#81817F"/>
</g>
<path d="M105 174.61L172.917 195.11L212 174.61H486L425.951 453.61H172.917L105 174.61Z" fill="#C3FFB9"/>
<path d="M105 174.126L172.5 194.61L211.5 174.126L211.5 453.61L172.5 453.61L105 174.126Z" fill="#685555"/>
<path d="M108.601 189.036C106.988 182.356 113.154 176.405 119.773 178.256L163.253 190.41C166.902 191.43 169.521 194.626 169.805 198.403L189 453.61L172.5 453.61L108.601 189.036Z" fill="#665A5A"/>
<g filter="url(#filter0_f_558_69)">
<rect x="168" y="445.61" width="258" height="17" rx="8.5" fill="url(#paint0_radial_558_69)" fill-opacity="0.12"/>
</g>
<g opacity="0.6">
<path d="M280.122 313.993C278.102 313.993 276.364 313.584 274.906 312.766C273.457 311.939 272.341 310.772 271.557 309.263C270.773 307.746 270.381 305.952 270.381 303.881C270.381 301.861 270.773 300.088 271.557 298.563C272.341 297.037 273.445 295.848 274.868 294.996C276.3 294.144 277.979 293.718 279.905 293.718C281.2 293.718 282.406 293.926 283.523 294.344C284.648 294.753 285.628 295.371 286.463 296.198C287.307 297.024 287.963 298.064 288.432 299.317C288.901 300.561 289.135 302.019 289.135 303.689V305.185H272.554V301.81H284.009C284.009 301.026 283.838 300.331 283.497 299.726C283.156 299.121 282.683 298.648 282.078 298.307C281.482 297.958 280.787 297.783 279.994 297.783C279.168 297.783 278.435 297.975 277.795 298.358C277.165 298.733 276.67 299.24 276.312 299.88C275.955 300.51 275.771 301.213 275.763 301.989V305.198C275.763 306.169 275.942 307.009 276.3 307.716C276.666 308.424 277.182 308.969 277.847 309.353C278.511 309.736 279.3 309.928 280.212 309.928C280.817 309.928 281.371 309.843 281.874 309.672C282.376 309.502 282.807 309.246 283.165 308.905C283.523 308.564 283.795 308.147 283.983 307.652L289.02 307.985C288.764 309.195 288.24 310.252 287.447 311.155C286.663 312.05 285.649 312.749 284.405 313.252C283.169 313.746 281.741 313.993 280.122 313.993ZM337.27 313.61V310.362L346.884 298.46V298.32H337.603V293.973H353.442V297.514L344.417 309.122V309.263H353.775V313.61H337.27ZM363.538 313.98C362.286 313.98 361.169 313.763 360.189 313.328C359.209 312.885 358.433 312.233 357.862 311.372C357.3 310.503 357.018 309.421 357.018 308.125C357.018 307.034 357.219 306.118 357.619 305.377C358.02 304.635 358.565 304.039 359.256 303.587C359.946 303.135 360.73 302.794 361.608 302.564C362.494 302.334 363.423 302.172 364.395 302.078C365.537 301.959 366.457 301.848 367.156 301.746C367.855 301.635 368.362 301.473 368.678 301.26C368.993 301.047 369.151 300.732 369.151 300.314V300.237C369.151 299.428 368.895 298.801 368.384 298.358C367.881 297.915 367.165 297.693 366.236 297.693C365.256 297.693 364.476 297.911 363.896 298.345C363.317 298.772 362.933 299.308 362.746 299.956L357.709 299.547C357.964 298.354 358.467 297.323 359.217 296.453C359.967 295.576 360.935 294.902 362.119 294.433C363.313 293.956 364.693 293.718 366.261 293.718C367.352 293.718 368.396 293.845 369.393 294.101C370.399 294.357 371.29 294.753 372.065 295.29C372.849 295.827 373.467 296.517 373.919 297.361C374.371 298.196 374.597 299.198 374.597 300.365V313.61H369.432V310.887H369.278C368.963 311.5 368.541 312.041 368.013 312.51C367.484 312.97 366.849 313.333 366.108 313.597C365.366 313.853 364.51 313.98 363.538 313.98ZM365.098 310.222C365.899 310.222 366.607 310.064 367.22 309.749C367.834 309.425 368.315 308.99 368.665 308.445C369.014 307.899 369.189 307.282 369.189 306.591V304.507C369.018 304.618 368.784 304.72 368.486 304.814C368.196 304.899 367.868 304.98 367.501 305.057C367.135 305.125 366.768 305.189 366.402 305.249C366.036 305.3 365.703 305.347 365.405 305.389C364.766 305.483 364.207 305.632 363.73 305.837C363.253 306.041 362.882 306.318 362.618 306.668C362.354 307.009 362.222 307.435 362.222 307.946C362.222 308.688 362.49 309.255 363.027 309.647C363.572 310.03 364.263 310.222 365.098 310.222ZM384.421 313.98C383.168 313.98 382.052 313.763 381.072 313.328C380.092 312.885 379.316 312.233 378.745 311.372C378.183 310.503 377.901 309.421 377.901 308.125C377.901 307.034 378.102 306.118 378.502 305.377C378.903 304.635 379.448 304.039 380.138 303.587C380.829 303.135 381.613 302.794 382.491 302.564C383.377 302.334 384.306 302.172 385.278 302.078C386.42 301.959 387.34 301.848 388.039 301.746C388.738 301.635 389.245 301.473 389.56 301.26C389.876 301.047 390.033 300.732 390.033 300.314V300.237C390.033 299.428 389.778 298.801 389.266 298.358C388.763 297.915 388.048 297.693 387.119 297.693C386.138 297.693 385.359 297.911 384.779 298.345C384.2 298.772 383.816 299.308 383.629 299.956L378.592 299.547C378.847 298.354 379.35 297.323 380.1 296.453C380.85 295.576 381.817 294.902 383.002 294.433C384.195 293.956 385.576 293.718 387.144 293.718C388.235 293.718 389.279 293.845 390.276 294.101C391.282 294.357 392.173 294.753 392.948 295.29C393.732 295.827 394.35 296.517 394.802 297.361C395.254 298.196 395.479 299.198 395.479 300.365V313.61H390.315V310.887H390.161C389.846 311.5 389.424 312.041 388.896 312.51C388.367 312.97 387.732 313.333 386.991 313.597C386.249 313.853 385.393 313.98 384.421 313.98ZM385.981 310.222C386.782 310.222 387.489 310.064 388.103 309.749C388.717 309.425 389.198 308.99 389.548 308.445C389.897 307.899 390.072 307.282 390.072 306.591V304.507C389.901 304.618 389.667 304.72 389.369 304.814C389.079 304.899 388.751 304.98 388.384 305.057C388.018 305.125 387.651 305.189 387.285 305.249C386.918 305.3 386.586 305.347 386.288 305.389C385.648 305.483 385.09 305.632 384.613 305.837C384.136 306.041 383.765 306.318 383.501 306.668C383.237 307.009 383.104 307.435 383.104 307.946C383.104 308.688 383.373 309.255 383.91 309.647C384.455 310.03 385.146 310.222 385.981 310.222ZM399.705 313.61V293.973H404.984V297.399H405.189C405.547 296.181 406.148 295.26 406.991 294.638C407.835 294.007 408.807 293.692 409.906 293.692C410.179 293.692 410.473 293.709 410.788 293.743C411.104 293.777 411.381 293.824 411.619 293.884V298.716C411.364 298.639 411.01 298.571 410.558 298.512C410.107 298.452 409.693 298.422 409.318 298.422C408.517 298.422 407.801 298.597 407.17 298.946C406.548 299.287 406.054 299.764 405.688 300.378C405.33 300.992 405.151 301.699 405.151 302.5V313.61H399.705Z" fill="black"/>
<path d="M292.791 313.61V287.428H303.274C305.2 287.428 306.807 287.713 308.094 288.284C309.381 288.855 310.348 289.648 310.996 290.662C311.643 291.668 311.967 292.827 311.967 294.139C311.967 295.162 311.763 296.061 311.354 296.837C310.945 297.604 310.382 298.235 309.666 298.729C308.959 299.215 308.149 299.56 307.237 299.764V300.02C308.234 300.063 309.168 300.344 310.037 300.864C310.915 301.384 311.626 302.112 312.172 303.05C312.717 303.979 312.99 305.087 312.99 306.374C312.99 307.763 312.645 309.003 311.955 310.094C311.273 311.176 310.263 312.033 308.925 312.664C307.587 313.294 305.938 313.61 303.977 313.61H292.791ZM298.327 309.084H302.839C304.382 309.084 305.507 308.79 306.214 308.202C306.922 307.605 307.276 306.813 307.276 305.824C307.276 305.1 307.101 304.46 306.751 303.907C306.402 303.353 305.903 302.918 305.256 302.603C304.616 302.287 303.854 302.13 302.967 302.13H298.327V309.084ZM298.327 298.384H302.43C303.189 298.384 303.862 298.252 304.45 297.987C305.047 297.715 305.516 297.331 305.857 296.837C306.206 296.343 306.381 295.75 306.381 295.06C306.381 294.114 306.044 293.351 305.371 292.772C304.706 292.192 303.76 291.902 302.533 291.902H298.327V298.384ZM322.089 313.98C320.836 313.98 319.72 313.763 318.74 313.328C317.76 312.885 316.984 312.233 316.413 311.372C315.85 310.503 315.569 309.421 315.569 308.125C315.569 307.034 315.77 306.118 316.17 305.377C316.571 304.635 317.116 304.039 317.806 303.587C318.497 303.135 319.281 302.794 320.159 302.564C321.045 302.334 321.974 302.172 322.946 302.078C324.088 301.959 325.008 301.848 325.707 301.746C326.406 301.635 326.913 301.473 327.228 301.26C327.544 301.047 327.701 300.732 327.701 300.314V300.237C327.701 299.428 327.446 298.801 326.934 298.358C326.431 297.915 325.716 297.693 324.787 297.693C323.806 297.693 323.027 297.911 322.447 298.345C321.868 298.772 321.484 299.308 321.297 299.956L316.26 299.547C316.515 298.354 317.018 297.323 317.768 296.453C318.518 295.576 319.485 294.902 320.67 294.433C321.863 293.956 323.244 293.718 324.812 293.718C325.903 293.718 326.947 293.845 327.944 294.101C328.95 294.357 329.841 294.753 330.616 295.29C331.4 295.827 332.018 296.517 332.47 297.361C332.922 298.196 333.147 299.198 333.147 300.365V313.61H327.983V310.887H327.829C327.514 311.5 327.092 312.041 326.564 312.51C326.035 312.97 325.4 313.333 324.659 313.597C323.917 313.853 323.061 313.98 322.089 313.98ZM323.649 310.222C324.45 310.222 325.157 310.064 325.771 309.749C326.385 309.425 326.866 308.99 327.216 308.445C327.565 307.899 327.74 307.282 327.74 306.591V304.507C327.569 304.618 327.335 304.72 327.037 304.814C326.747 304.899 326.419 304.98 326.052 305.057C325.686 305.125 325.319 305.189 324.953 305.249C324.586 305.3 324.254 305.347 323.956 305.389C323.316 305.483 322.758 305.632 322.281 305.837C321.804 306.041 321.433 306.318 321.169 306.668C320.904 307.009 320.772 307.435 320.772 307.946C320.772 308.688 321.041 309.255 321.578 309.647C322.123 310.03 322.814 310.222 323.649 310.222Z" fill="#1EA707"/>
</g>
<path d="M313.5 212.5C301.167 67 277.5 -143.5 249 174.706" stroke="#1EA707" stroke-width="15"/>
<path d="M399.5 207C399.5 148 368.5 -141.5 335 175.5" stroke="#1EA707" stroke-width="15"/>
<path d="M299.756 335.61V326.882H302.807C303.415 326.882 303.917 326.987 304.311 327.198C304.706 327.405 305 327.685 305.194 328.037C305.387 328.387 305.483 328.774 305.483 329.201C305.483 329.576 305.417 329.885 305.283 330.13C305.152 330.374 304.979 330.567 304.763 330.709C304.55 330.851 304.319 330.956 304.069 331.024V331.11C304.336 331.127 304.604 331.22 304.874 331.391C305.144 331.561 305.37 331.806 305.551 332.124C305.733 332.442 305.824 332.831 305.824 333.291C305.824 333.729 305.725 334.122 305.526 334.472C305.327 334.821 305.013 335.098 304.584 335.303C304.155 335.507 303.597 335.61 302.909 335.61H299.756ZM300.813 334.672H302.909C303.6 334.672 304.09 334.539 304.38 334.272C304.672 334.002 304.819 333.675 304.819 333.291C304.819 332.996 304.743 332.723 304.593 332.473C304.442 332.22 304.228 332.019 303.949 331.868C303.671 331.715 303.341 331.638 302.961 331.638H300.813V334.672ZM300.813 330.718H302.773C303.091 330.718 303.378 330.655 303.634 330.53C303.892 330.405 304.097 330.229 304.248 330.002C304.401 329.774 304.478 329.507 304.478 329.201C304.478 328.817 304.344 328.492 304.077 328.225C303.81 327.955 303.387 327.82 302.807 327.82H300.813V330.718ZM308.072 338.064C307.902 338.064 307.75 338.05 307.616 338.022C307.483 337.996 307.39 337.97 307.339 337.945L307.595 337.059C307.839 337.121 308.055 337.144 308.243 337.127C308.43 337.11 308.596 337.026 308.741 336.875C308.889 336.728 309.024 336.487 309.146 336.155L309.333 335.644L306.913 329.064H308.004L309.811 334.28H309.879L311.686 329.064H312.777L309.998 336.564C309.873 336.902 309.718 337.182 309.534 337.404C309.349 337.628 309.135 337.794 308.89 337.902C308.649 338.01 308.376 338.064 308.072 338.064ZM319.201 335.61L316.814 326.882H317.888L319.712 333.99H319.797L321.655 326.882H322.848L324.706 333.99H324.792L326.615 326.882H327.689L325.303 335.61H324.212L322.286 328.655H322.218L320.292 335.61H319.201ZM328.87 335.61V329.064H329.875V335.61H328.87ZM329.381 327.973C329.185 327.973 329.016 327.907 328.874 327.773C328.735 327.639 328.665 327.479 328.665 327.291C328.665 327.104 328.735 326.943 328.874 326.81C329.016 326.676 329.185 326.61 329.381 326.61C329.577 326.61 329.745 326.676 329.884 326.81C330.026 326.943 330.097 327.104 330.097 327.291C330.097 327.479 330.026 327.639 329.884 327.773C329.745 327.907 329.577 327.973 329.381 327.973ZM332.723 331.672V335.61H331.717V329.064H332.689V330.087H332.774C332.928 329.755 333.161 329.487 333.473 329.286C333.786 329.081 334.189 328.979 334.683 328.979C335.126 328.979 335.514 329.07 335.847 329.252C336.179 329.431 336.438 329.703 336.622 330.07C336.807 330.434 336.899 330.894 336.899 331.451V335.61H335.893V331.519C335.893 331.005 335.76 330.604 335.493 330.317C335.226 330.027 334.859 329.882 334.393 329.882C334.072 329.882 333.786 329.952 333.533 330.091C333.283 330.23 333.085 330.434 332.94 330.701C332.795 330.968 332.723 331.291 332.723 331.672ZM341.379 338.201C340.893 338.201 340.475 338.138 340.126 338.013C339.777 337.891 339.485 337.729 339.252 337.527C339.022 337.328 338.839 337.115 338.703 336.888L339.504 336.326C339.595 336.445 339.71 336.581 339.849 336.735C339.988 336.891 340.179 337.026 340.42 337.139C340.664 337.256 340.984 337.314 341.379 337.314C341.907 337.314 342.343 337.186 342.687 336.931C343.031 336.675 343.203 336.274 343.203 335.729V334.399H343.118C343.044 334.519 342.939 334.666 342.802 334.843C342.669 335.016 342.475 335.171 342.223 335.307C341.973 335.441 341.635 335.507 341.208 335.507C340.68 335.507 340.206 335.382 339.785 335.132C339.368 334.882 339.037 334.519 338.792 334.041C338.551 333.564 338.43 332.985 338.43 332.303C338.43 331.632 338.548 331.049 338.784 330.551C339.02 330.051 339.348 329.665 339.768 329.392C340.189 329.117 340.674 328.979 341.225 328.979C341.652 328.979 341.99 329.05 342.24 329.192C342.493 329.331 342.686 329.49 342.819 329.669C342.956 329.845 343.061 329.99 343.135 330.104H343.237V329.064H344.208V335.797C344.208 336.36 344.081 336.817 343.825 337.169C343.572 337.524 343.231 337.784 342.802 337.949C342.376 338.117 341.902 338.201 341.379 338.201ZM341.345 334.604C341.748 334.604 342.089 334.512 342.368 334.327C342.646 334.142 342.858 333.877 343.002 333.53C343.147 333.184 343.22 332.769 343.22 332.286C343.22 331.814 343.149 331.398 343.007 331.037C342.865 330.676 342.654 330.394 342.376 330.189C342.098 329.985 341.754 329.882 341.345 329.882C340.919 329.882 340.564 329.99 340.279 330.206C339.998 330.422 339.787 330.712 339.645 331.076C339.505 331.439 339.436 331.843 339.436 332.286C339.436 332.74 339.507 333.142 339.649 333.492C339.794 333.838 340.007 334.111 340.288 334.31C340.572 334.506 340.924 334.604 341.345 334.604ZM350.686 330.53L349.782 330.786C349.725 330.635 349.642 330.489 349.531 330.347C349.423 330.202 349.275 330.083 349.088 329.989C348.9 329.895 348.66 329.848 348.368 329.848C347.967 329.848 347.633 329.941 347.366 330.125C347.102 330.307 346.97 330.539 346.97 330.82C346.97 331.07 347.061 331.267 347.243 331.412C347.424 331.557 347.708 331.678 348.095 331.774L349.066 332.013C349.652 332.155 350.088 332.372 350.375 332.665C350.662 332.955 350.805 333.328 350.805 333.786C350.805 334.161 350.697 334.496 350.481 334.791C350.268 335.087 349.97 335.32 349.586 335.49C349.203 335.661 348.757 335.746 348.248 335.746C347.581 335.746 347.028 335.601 346.591 335.311C346.153 335.022 345.876 334.598 345.76 334.041L346.714 333.803C346.805 334.155 346.977 334.419 347.23 334.595C347.485 334.772 347.819 334.86 348.231 334.86C348.7 334.86 349.072 334.76 349.348 334.561C349.626 334.36 349.765 334.118 349.765 333.837C349.765 333.61 349.686 333.419 349.527 333.266C349.368 333.11 349.123 332.993 348.794 332.916L347.703 332.661C347.103 332.519 346.663 332.299 346.382 332C346.103 331.699 345.964 331.323 345.964 330.871C345.964 330.502 346.068 330.175 346.275 329.891C346.485 329.607 346.771 329.384 347.132 329.222C347.495 329.06 347.907 328.979 348.368 328.979C349.015 328.979 349.524 329.121 349.893 329.405C350.265 329.689 350.529 330.064 350.686 330.53ZM355.353 327.82V326.882H361.898V327.82H359.154V335.61H358.097V327.82H355.353ZM365.188 335.746C364.558 335.746 364.013 335.607 363.556 335.328C363.102 335.047 362.751 334.655 362.504 334.152C362.259 333.647 362.137 333.059 362.137 332.388C362.137 331.718 362.259 331.127 362.504 330.615C362.751 330.101 363.094 329.701 363.535 329.414C363.978 329.124 364.495 328.979 365.086 328.979C365.427 328.979 365.763 329.036 366.096 329.149C366.428 329.263 366.731 329.448 367.004 329.703C367.276 329.956 367.494 330.291 367.656 330.709C367.817 331.127 367.898 331.641 367.898 332.252V332.678H362.853V331.809H366.876C366.876 331.439 366.802 331.11 366.654 330.82C366.509 330.53 366.302 330.301 366.032 330.134C365.765 329.966 365.45 329.882 365.086 329.882C364.685 329.882 364.339 329.982 364.046 330.181C363.756 330.377 363.533 330.632 363.377 330.948C363.221 331.263 363.143 331.601 363.143 331.962V332.541C363.143 333.036 363.228 333.455 363.398 333.799C363.572 334.139 363.812 334.399 364.119 334.578C364.425 334.755 364.782 334.843 365.188 334.843C365.452 334.843 365.691 334.806 365.904 334.732C366.12 334.655 366.306 334.541 366.462 334.391C366.619 334.237 366.739 334.047 366.825 333.82L367.796 334.093C367.694 334.422 367.522 334.712 367.281 334.962C367.039 335.209 366.741 335.402 366.386 335.541C366.031 335.678 365.631 335.746 365.188 335.746ZM372.087 335.746C371.474 335.746 370.945 335.601 370.502 335.311C370.059 335.022 369.718 334.622 369.479 334.114C369.241 333.605 369.121 333.024 369.121 332.371C369.121 331.706 369.244 331.12 369.488 330.611C369.735 330.1 370.079 329.701 370.519 329.414C370.962 329.124 371.479 328.979 372.07 328.979C372.531 328.979 372.945 329.064 373.315 329.235C373.684 329.405 373.987 329.644 374.222 329.951C374.458 330.257 374.604 330.615 374.661 331.024H373.656C373.579 330.726 373.408 330.462 373.144 330.232C372.883 329.999 372.531 329.882 372.087 329.882C371.695 329.882 371.352 329.985 371.056 330.189C370.763 330.391 370.535 330.676 370.37 331.046C370.208 331.412 370.127 331.843 370.127 332.337C370.127 332.843 370.207 333.283 370.366 333.658C370.528 334.033 370.755 334.324 371.048 334.532C371.343 334.739 371.69 334.843 372.087 334.843C372.349 334.843 372.586 334.797 372.799 334.706C373.012 334.615 373.192 334.485 373.34 334.314C373.488 334.144 373.593 333.939 373.656 333.701H374.661C374.604 334.087 374.464 334.435 374.239 334.745C374.018 335.051 373.724 335.296 373.357 335.478C372.994 335.657 372.57 335.746 372.087 335.746ZM377.137 331.672V335.61H376.131V326.882H377.137V330.087H377.222C377.376 329.749 377.606 329.48 377.913 329.282C378.222 329.08 378.634 328.979 379.148 328.979C379.594 328.979 379.985 329.068 380.32 329.247C380.656 329.424 380.915 329.695 381.1 330.061C381.288 330.425 381.381 330.888 381.381 331.451V335.61H380.376V331.519C380.376 330.999 380.241 330.597 379.971 330.313C379.704 330.026 379.333 329.882 378.859 329.882C378.529 329.882 378.234 329.952 377.972 330.091C377.714 330.23 377.509 330.434 377.359 330.701C377.211 330.968 377.137 331.291 377.137 331.672Z" fill="#5E5B5B"/>
<g opacity="0.37">
<path d="M265.198 467.22L273.615 463.724L280.321 461.155L299.439 461.155L379.051 467.22L307.857 467.22L265.198 467.22Z" fill="#81817F"/>
</g>
<path d="M289.452 387.428L308.832 393.277L319.984 387.428H398.169L381.034 467.039H308.832L289.452 387.428Z" fill="#72DAE9"/>
<path d="M289.452 387.29L308.713 393.135L319.841 387.29L319.841 467.039L308.713 467.039L289.452 387.29Z" fill="#685555"/>
<path d="M290.48 391.544C290.019 389.638 291.779 387.94 293.667 388.468L306.074 391.937C307.116 392.228 307.863 393.139 307.944 394.217L313.421 467.039L308.713 467.039L290.48 391.544Z" fill="#665A5A"/>
<g filter="url(#filter1_f_558_69)">
<rect x="307.429" y="464.757" width="73.6191" height="4.85087" rx="2.42544" fill="url(#paint1_radial_558_69)" fill-opacity="0.12"/>
</g>
<g opacity="0.6">
<path d="M339.423 426.792C338.846 426.792 338.35 426.675 337.934 426.441C337.521 426.206 337.202 425.872 336.979 425.442C336.755 425.009 336.643 424.497 336.643 423.906C336.643 423.33 336.755 422.824 336.979 422.389C337.202 421.953 337.517 421.614 337.923 421.371C338.332 421.128 338.811 421.006 339.361 421.006C339.73 421.006 340.074 421.066 340.393 421.185C340.714 421.302 340.994 421.478 341.232 421.714C341.473 421.95 341.66 422.246 341.794 422.604C341.928 422.959 341.994 423.375 341.994 423.851V424.278H337.263V423.315H340.532C340.532 423.092 340.483 422.893 340.386 422.721C340.288 422.548 340.153 422.413 339.981 422.316C339.811 422.216 339.612 422.166 339.386 422.166C339.15 422.166 338.941 422.221 338.759 422.33C338.579 422.437 338.438 422.582 338.336 422.764C338.233 422.944 338.181 423.145 338.179 423.366V424.282C338.179 424.559 338.23 424.799 338.332 425.001C338.437 425.202 338.584 425.358 338.773 425.467C338.963 425.577 339.188 425.632 339.448 425.632C339.621 425.632 339.779 425.607 339.922 425.559C340.066 425.51 340.189 425.437 340.291 425.34C340.393 425.243 340.471 425.123 340.524 424.982L341.962 425.077C341.889 425.423 341.739 425.724 341.513 425.982C341.289 426.237 341 426.437 340.645 426.58C340.292 426.721 339.885 426.792 339.423 426.792ZM355.73 426.682V425.756L358.473 422.36V422.319H355.824V421.079H360.344V422.09L357.769 425.402V425.442H360.439V426.682H355.73ZM363.225 426.788C362.868 426.788 362.549 426.726 362.269 426.602C361.99 426.476 361.768 426.289 361.605 426.044C361.445 425.796 361.365 425.487 361.365 425.117C361.365 424.806 361.422 424.545 361.536 424.333C361.65 424.121 361.806 423.951 362.003 423.822C362.2 423.693 362.424 423.596 362.674 423.53C362.927 423.465 363.192 423.419 363.47 423.392C363.795 423.358 364.058 423.326 364.257 423.297C364.457 423.265 364.602 423.219 364.692 423.158C364.782 423.098 364.827 423.008 364.827 422.888V422.867C364.827 422.636 364.754 422.457 364.608 422.33C364.464 422.204 364.26 422.141 363.995 422.141C363.715 422.141 363.493 422.203 363.327 422.327C363.162 422.448 363.052 422.601 362.999 422.786L361.562 422.67C361.635 422.329 361.778 422.035 361.992 421.787C362.206 421.536 362.482 421.344 362.82 421.21C363.161 421.074 363.555 421.006 364.002 421.006C364.313 421.006 364.611 421.043 364.896 421.116C365.183 421.189 365.437 421.302 365.658 421.455C365.882 421.608 366.058 421.805 366.187 422.046C366.316 422.284 366.381 422.57 366.381 422.903V426.682H364.907V425.905H364.863C364.773 426.08 364.653 426.235 364.502 426.369C364.351 426.5 364.17 426.603 363.958 426.679C363.747 426.752 363.502 426.788 363.225 426.788ZM363.67 425.716C363.899 425.716 364.101 425.671 364.276 425.581C364.451 425.488 364.588 425.364 364.688 425.208C364.788 425.053 364.837 424.877 364.837 424.68V424.085C364.789 424.117 364.722 424.146 364.637 424.172C364.554 424.197 364.461 424.22 364.356 424.242C364.251 424.261 364.147 424.28 364.042 424.297C363.938 424.311 363.843 424.324 363.758 424.337C363.575 424.363 363.416 424.406 363.28 424.464C363.144 424.523 363.038 424.602 362.962 424.701C362.887 424.799 362.849 424.92 362.849 425.066C362.849 425.278 362.926 425.44 363.079 425.551C363.235 425.661 363.432 425.716 363.67 425.716ZM369.184 426.788C368.826 426.788 368.508 426.726 368.228 426.602C367.949 426.476 367.727 426.289 367.564 426.044C367.404 425.796 367.324 425.487 367.324 425.117C367.324 424.806 367.381 424.545 367.495 424.333C367.609 424.121 367.765 423.951 367.962 423.822C368.159 423.693 368.383 423.596 368.633 423.53C368.886 423.465 369.151 423.419 369.428 423.392C369.754 423.358 370.017 423.326 370.216 423.297C370.416 423.265 370.56 423.219 370.65 423.158C370.74 423.098 370.785 423.008 370.785 422.888V422.867C370.785 422.636 370.712 422.457 370.566 422.33C370.423 422.204 370.219 422.141 369.954 422.141C369.674 422.141 369.451 422.203 369.286 422.327C369.121 422.448 369.011 422.601 368.958 422.786L367.521 422.67C367.593 422.329 367.737 422.035 367.951 421.787C368.165 421.536 368.441 421.344 368.779 421.21C369.119 421.074 369.513 421.006 369.961 421.006C370.272 421.006 370.57 421.043 370.855 421.116C371.142 421.189 371.396 421.302 371.617 421.455C371.841 421.608 372.017 421.805 372.146 422.046C372.275 422.284 372.339 422.57 372.339 422.903V426.682H370.866V425.905H370.822C370.732 426.08 370.611 426.235 370.461 426.369C370.31 426.5 370.129 426.603 369.917 426.679C369.706 426.752 369.461 426.788 369.184 426.788ZM369.629 425.716C369.858 425.716 370.059 425.671 370.235 425.581C370.41 425.488 370.547 425.364 370.647 425.208C370.746 425.053 370.796 424.877 370.796 424.68V424.085C370.748 424.117 370.681 424.146 370.596 424.172C370.513 424.197 370.419 424.22 370.315 424.242C370.21 424.261 370.106 424.28 370.001 424.297C369.896 424.311 369.802 424.324 369.717 424.337C369.534 424.363 369.375 424.406 369.239 424.464C369.102 424.523 368.997 424.602 368.921 424.701C368.846 424.799 368.808 424.92 368.808 425.066C368.808 425.278 368.885 425.44 369.038 425.551C369.194 425.661 369.391 425.716 369.629 425.716ZM373.545 426.682V421.079H375.052V422.057H375.11C375.212 421.709 375.384 421.446 375.624 421.269C375.865 421.089 376.142 420.999 376.456 420.999C376.534 420.999 376.618 421.004 376.708 421.013C376.798 421.023 376.877 421.037 376.945 421.054V422.432C376.872 422.411 376.771 422.391 376.642 422.374C376.513 422.357 376.395 422.349 376.288 422.349C376.06 422.349 375.855 422.398 375.675 422.498C375.498 422.595 375.357 422.732 375.252 422.907C375.15 423.082 375.099 423.284 375.099 423.512V426.682H373.545Z" fill="white"/>
<path d="M343.038 426.682V419.211H346.029C346.579 419.211 347.037 419.293 347.404 419.456C347.771 419.619 348.047 419.845 348.232 420.134C348.417 420.421 348.51 420.752 348.51 421.127C348.51 421.418 348.451 421.675 348.334 421.896C348.218 422.115 348.057 422.295 347.853 422.436C347.651 422.575 347.42 422.673 347.16 422.732V422.805C347.444 422.817 347.711 422.897 347.959 423.045C348.209 423.194 348.412 423.402 348.568 423.669C348.724 423.934 348.801 424.25 348.801 424.618C348.801 425.014 348.703 425.368 348.506 425.679C348.311 425.988 348.023 426.232 347.641 426.412C347.26 426.592 346.789 426.682 346.23 426.682H343.038ZM344.617 425.391H345.905C346.345 425.391 346.666 425.307 346.868 425.139C347.07 424.969 347.171 424.743 347.171 424.461C347.171 424.254 347.121 424.072 347.021 423.914C346.922 423.755 346.779 423.631 346.594 423.541C346.412 423.451 346.194 423.406 345.941 423.406H344.617V425.391ZM344.617 422.338H345.788C346.005 422.338 346.197 422.3 346.365 422.225C346.535 422.147 346.669 422.037 346.766 421.896C346.866 421.755 346.915 421.586 346.915 421.389C346.915 421.119 346.819 420.902 346.627 420.736C346.438 420.571 346.168 420.488 345.817 420.488H344.617V422.338ZM351.398 426.788C351.04 426.788 350.722 426.726 350.442 426.602C350.162 426.476 349.941 426.289 349.778 426.044C349.618 425.796 349.537 425.487 349.537 425.117C349.537 424.806 349.594 424.545 349.709 424.333C349.823 424.121 349.979 423.951 350.176 423.822C350.373 423.693 350.596 423.596 350.847 423.53C351.1 423.465 351.365 423.419 351.642 423.392C351.968 423.358 352.231 423.326 352.43 423.297C352.63 423.265 352.774 423.219 352.864 423.158C352.954 423.098 352.999 423.008 352.999 422.888V422.867C352.999 422.636 352.926 422.457 352.78 422.33C352.637 422.204 352.433 422.141 352.167 422.141C351.888 422.141 351.665 422.203 351.5 422.327C351.335 422.448 351.225 422.601 351.172 422.786L349.734 422.67C349.807 422.329 349.951 422.035 350.165 421.787C350.379 421.536 350.655 421.344 350.993 421.21C351.333 421.074 351.727 421.006 352.175 421.006C352.486 421.006 352.784 421.043 353.069 421.116C353.355 421.189 353.61 421.302 353.831 421.455C354.055 421.608 354.231 421.805 354.36 422.046C354.489 422.284 354.553 422.57 354.553 422.903V426.682H353.079V425.905H353.036C352.946 426.08 352.825 426.235 352.675 426.369C352.524 426.5 352.343 426.603 352.131 426.679C351.919 426.752 351.675 426.788 351.398 426.788ZM351.843 425.716C352.071 425.716 352.273 425.671 352.448 425.581C352.623 425.488 352.761 425.364 352.861 425.208C352.96 425.053 353.01 424.877 353.01 424.68V424.085C352.961 424.117 352.895 424.146 352.81 424.172C352.727 424.197 352.633 424.22 352.529 424.242C352.424 424.261 352.319 424.28 352.215 424.297C352.11 424.311 352.015 424.324 351.93 424.337C351.748 424.363 351.589 424.406 351.452 424.464C351.316 424.523 351.211 424.602 351.135 424.701C351.06 424.799 351.022 424.92 351.022 425.066C351.022 425.278 351.099 425.44 351.252 425.551C351.407 425.661 351.604 425.716 351.843 425.716Z" fill="#1EA707"/>
</g>
<path d="M348.947 398.24C345.428 356.722 338.675 296.657 330.542 387.455" stroke="#1EA707" stroke-width="4.28018"/>
<path d="M373.487 396.67C373.487 379.835 364.641 297.227 355.082 387.682" stroke="#1EA707" stroke-width="4.28018"/>
<path d="M345.025 433.091V430.601H345.896C346.069 430.601 346.212 430.631 346.325 430.691C346.438 430.75 346.522 430.83 346.577 430.93C346.632 431.03 346.659 431.141 346.659 431.262C346.659 431.369 346.64 431.457 346.602 431.527C346.565 431.597 346.516 431.652 346.454 431.693C346.393 431.733 346.327 431.763 346.256 431.783V431.807C346.332 431.812 346.409 431.838 346.486 431.887C346.563 431.936 346.627 432.005 346.679 432.096C346.731 432.187 346.757 432.298 346.757 432.429C346.757 432.554 346.728 432.667 346.672 432.766C346.615 432.866 346.525 432.945 346.403 433.003C346.28 433.062 346.121 433.091 345.925 433.091H345.025ZM345.327 432.823H345.925C346.122 432.823 346.262 432.785 346.345 432.709C346.428 432.632 346.47 432.539 346.47 432.429C346.47 432.345 346.448 432.267 346.405 432.196C346.362 432.124 346.301 432.066 346.222 432.023C346.142 431.98 346.048 431.958 345.94 431.958H345.327V432.823ZM345.327 431.695H345.886C345.977 431.695 346.059 431.677 346.132 431.641C346.206 431.606 346.264 431.556 346.307 431.491C346.351 431.426 346.373 431.35 346.373 431.262C346.373 431.153 346.334 431.06 346.258 430.984C346.182 430.907 346.061 430.868 345.896 430.868H345.327V431.695ZM347.398 433.791C347.35 433.791 347.306 433.787 347.268 433.779C347.23 433.772 347.204 433.765 347.189 433.757L347.262 433.504C347.332 433.522 347.393 433.529 347.447 433.524C347.5 433.519 347.548 433.495 347.589 433.452C347.631 433.41 347.67 433.341 347.705 433.247L347.758 433.101L347.067 431.223H347.379L347.894 432.712H347.914L348.429 431.223H348.741L347.948 433.363C347.912 433.46 347.868 433.54 347.815 433.603C347.763 433.667 347.701 433.714 347.632 433.745C347.563 433.776 347.485 433.791 347.398 433.791ZM350.574 433.091L349.893 430.601H350.199L350.72 432.629H350.744L351.274 430.601H351.615L352.145 432.629H352.169L352.689 430.601H352.996L352.315 433.091H352.004L351.454 431.106H351.435L350.885 433.091H350.574ZM353.333 433.091V431.223H353.62V433.091H353.333ZM353.479 430.912C353.423 430.912 353.374 430.893 353.334 430.855C353.294 430.817 353.274 430.771 353.274 430.717C353.274 430.664 353.294 430.618 353.334 430.58C353.374 430.542 353.423 430.523 353.479 430.523C353.535 430.523 353.582 430.542 353.622 430.58C353.663 430.618 353.683 430.664 353.683 430.717C353.683 430.771 353.663 430.817 353.622 430.855C353.582 430.893 353.535 430.912 353.479 430.912ZM354.432 431.967V433.091H354.145V431.223H354.422V431.515H354.447C354.491 431.42 354.557 431.344 354.646 431.286C354.735 431.228 354.85 431.199 354.992 431.199C355.118 431.199 355.229 431.225 355.323 431.277C355.418 431.328 355.492 431.406 355.545 431.51C355.597 431.614 355.624 431.745 355.624 431.904V433.091H355.337V431.924C355.337 431.777 355.299 431.663 355.223 431.581C355.146 431.498 355.042 431.457 354.909 431.457C354.817 431.457 354.735 431.477 354.663 431.516C354.592 431.556 354.536 431.614 354.494 431.69C354.453 431.766 354.432 431.859 354.432 431.967ZM356.902 433.83C356.763 433.83 356.644 433.812 356.545 433.777C356.445 433.742 356.362 433.696 356.295 433.638C356.23 433.581 356.177 433.521 356.138 433.456L356.367 433.295C356.393 433.329 356.426 433.368 356.466 433.412C356.505 433.457 356.56 433.495 356.629 433.527C356.698 433.561 356.789 433.577 356.902 433.577C357.053 433.577 357.177 433.541 357.275 433.468C357.374 433.395 357.423 433.281 357.423 433.125V432.746H357.398C357.377 432.78 357.347 432.822 357.308 432.872C357.27 432.921 357.215 432.966 357.143 433.005C357.072 433.043 356.975 433.062 356.853 433.062C356.703 433.062 356.567 433.026 356.447 432.955C356.328 432.883 356.234 432.78 356.164 432.643C356.095 432.507 356.061 432.342 356.061 432.147C356.061 431.956 356.094 431.789 356.162 431.648C356.229 431.505 356.323 431.395 356.442 431.317C356.562 431.238 356.701 431.199 356.858 431.199C356.98 431.199 357.076 431.219 357.148 431.26C357.22 431.299 357.275 431.345 357.313 431.396C357.352 431.446 357.382 431.487 357.403 431.52H357.432V431.223H357.71V433.144C357.71 433.305 357.673 433.435 357.6 433.536C357.528 433.637 357.431 433.711 357.308 433.758C357.187 433.806 357.051 433.83 356.902 433.83ZM356.892 432.804C357.008 432.804 357.105 432.778 357.184 432.725C357.264 432.672 357.324 432.596 357.365 432.498C357.407 432.399 357.427 432.28 357.427 432.142C357.427 432.008 357.407 431.889 357.367 431.786C357.326 431.683 357.266 431.603 357.187 431.544C357.107 431.486 357.009 431.457 356.892 431.457C356.771 431.457 356.669 431.487 356.588 431.549C356.508 431.611 356.448 431.693 356.407 431.797C356.368 431.901 356.348 432.016 356.348 432.142C356.348 432.272 356.368 432.387 356.408 432.487C356.45 432.585 356.511 432.663 356.591 432.72C356.672 432.776 356.772 432.804 356.892 432.804ZM359.558 431.641L359.3 431.714C359.284 431.671 359.26 431.63 359.228 431.589C359.197 431.548 359.155 431.514 359.102 431.487C359.048 431.46 358.98 431.447 358.896 431.447C358.782 431.447 358.687 431.473 358.611 431.526C358.535 431.578 358.497 431.644 358.497 431.724C358.497 431.796 358.523 431.852 358.575 431.893C358.627 431.935 358.708 431.969 358.818 431.997L359.096 432.065C359.263 432.105 359.387 432.167 359.469 432.251C359.551 432.333 359.592 432.44 359.592 432.57C359.592 432.677 359.561 432.773 359.499 432.857C359.439 432.942 359.353 433.008 359.244 433.057C359.135 433.105 359.007 433.13 358.862 433.13C358.672 433.13 358.514 433.088 358.389 433.006C358.264 432.923 358.185 432.802 358.152 432.643L358.425 432.575C358.45 432.676 358.499 432.751 358.572 432.802C358.645 432.852 358.74 432.877 358.857 432.877C358.991 432.877 359.097 432.849 359.176 432.792C359.255 432.734 359.295 432.665 359.295 432.585C359.295 432.52 359.272 432.466 359.227 432.422C359.182 432.378 359.112 432.344 359.018 432.322L358.707 432.249C358.536 432.209 358.41 432.146 358.33 432.061C358.25 431.975 358.21 431.868 358.21 431.739C358.21 431.633 358.24 431.54 358.299 431.459C358.359 431.378 358.441 431.314 358.544 431.268C358.647 431.222 358.765 431.199 358.896 431.199C359.081 431.199 359.226 431.239 359.332 431.32C359.438 431.402 359.513 431.509 359.558 431.641ZM360.89 430.868V430.601H362.757V430.868H361.974V433.091H361.673V430.868H360.89ZM363.696 433.13C363.516 433.13 363.361 433.09 363.23 433.011C363.101 432.93 363 432.819 362.93 432.675C362.86 432.531 362.825 432.363 362.825 432.172C362.825 431.98 362.86 431.812 362.93 431.666C363 431.519 363.099 431.405 363.224 431.323C363.351 431.24 363.498 431.199 363.667 431.199C363.764 431.199 363.86 431.215 363.955 431.248C364.05 431.28 364.136 431.333 364.214 431.406C364.292 431.478 364.354 431.573 364.4 431.693C364.446 431.812 364.469 431.958 364.469 432.133V432.254H363.03V432.006H364.178C364.178 431.901 364.156 431.807 364.114 431.724C364.073 431.641 364.014 431.576 363.937 431.528C363.861 431.481 363.771 431.457 363.667 431.457C363.553 431.457 363.454 431.485 363.37 431.542C363.287 431.598 363.224 431.671 363.179 431.761C363.135 431.851 363.112 431.947 363.112 432.05V432.215C363.112 432.356 363.137 432.476 363.185 432.574C363.235 432.671 363.303 432.746 363.391 432.797C363.478 432.847 363.58 432.872 363.696 432.872C363.771 432.872 363.839 432.861 363.9 432.84C363.962 432.819 364.015 432.786 364.06 432.743C364.104 432.699 364.139 432.645 364.163 432.58L364.44 432.658C364.411 432.752 364.362 432.835 364.293 432.906C364.224 432.977 364.139 433.032 364.038 433.071C363.936 433.11 363.822 433.13 363.696 433.13ZM365.665 433.13C365.49 433.13 365.339 433.088 365.212 433.006C365.086 432.923 364.989 432.809 364.92 432.664C364.852 432.519 364.818 432.353 364.818 432.167C364.818 431.977 364.853 431.81 364.923 431.665C364.993 431.519 365.092 431.405 365.217 431.323C365.344 431.24 365.491 431.199 365.66 431.199C365.791 431.199 365.909 431.223 366.015 431.272C366.12 431.32 366.207 431.389 366.274 431.476C366.341 431.564 366.383 431.666 366.399 431.783H366.112C366.09 431.697 366.042 431.622 365.966 431.556C365.892 431.49 365.791 431.457 365.665 431.457C365.553 431.457 365.455 431.486 365.37 431.544C365.287 431.602 365.222 431.683 365.175 431.789C365.128 431.893 365.105 432.016 365.105 432.157C365.105 432.301 365.128 432.427 365.173 432.534C365.22 432.641 365.284 432.724 365.368 432.783C365.452 432.842 365.551 432.872 365.665 432.872C365.739 432.872 365.807 432.859 365.868 432.833C365.929 432.807 365.98 432.77 366.022 432.721C366.064 432.673 366.094 432.614 366.112 432.546H366.399C366.383 432.656 366.343 432.756 366.279 432.844C366.215 432.932 366.132 433.001 366.027 433.053C365.923 433.104 365.802 433.13 365.665 433.13ZM367.106 431.967V433.091H366.819V430.601H367.106V431.515H367.13C367.174 431.419 367.239 431.342 367.327 431.285C367.415 431.228 367.533 431.199 367.679 431.199C367.807 431.199 367.918 431.224 368.014 431.275C368.11 431.326 368.184 431.403 368.236 431.508C368.29 431.611 368.317 431.744 368.317 431.904V433.091H368.03V431.924C368.03 431.775 367.991 431.661 367.914 431.579C367.838 431.498 367.732 431.457 367.597 431.457C367.503 431.457 367.418 431.477 367.344 431.516C367.27 431.556 367.212 431.614 367.169 431.69C367.127 431.766 367.106 431.859 367.106 431.967Z" fill="#5E5B5B"/>
<g opacity="0.37">
<path d="M27 463.5L46.5 460.526L65.4997 455L103.748 460.526L267.055 472.966L121.015 472.966L27 463.5Z" fill="#81817F"/>
</g>
<path d="M83.2612 309.289L123.015 321.288L145.891 309.289H306.272L271.123 472.596H123.015L83.2612 309.289Z" fill="#F6FB10"/>
<path d="M83.2612 309.006L122.771 320.995L145.599 309.006L145.599 472.596L122.771 472.596L83.2612 309.006Z" fill="#685555"/>
<path d="M85.369 317.733C84.4247 313.823 88.0341 310.34 91.908 311.423L117.359 318.537C119.494 319.134 121.027 321.005 121.193 323.216L132.429 472.596L122.771 472.596L85.369 317.733Z" fill="#665A5A"/>
<g filter="url(#filter2_f_558_69)">
<rect x="120.138" y="467.913" width="151.015" height="9.95059" rx="4.9753" fill="url(#paint2_radial_558_69)" fill-opacity="0.12"/>
</g>
<g opacity="0.6">
<path d="M185.766 391.266C184.584 391.266 183.566 391.027 182.713 390.548C181.865 390.064 181.211 389.381 180.752 388.498C180.293 387.61 180.064 386.559 180.064 385.347C180.064 384.165 180.293 383.127 180.752 382.234C181.211 381.341 181.857 380.645 182.691 380.147C183.529 379.648 184.511 379.398 185.639 379.398C186.397 379.398 187.103 379.521 187.756 379.765C188.415 380.004 188.989 380.366 189.478 380.85C189.971 381.334 190.355 381.943 190.63 382.676C190.904 383.404 191.041 384.257 191.041 385.235V386.11H181.336V384.135H188.041C188.041 383.676 187.941 383.269 187.741 382.915C187.542 382.561 187.265 382.284 186.911 382.085C186.562 381.88 186.155 381.778 185.691 381.778C185.207 381.778 184.778 381.89 184.404 382.115C184.035 382.334 183.746 382.631 183.536 383.005C183.327 383.374 183.219 383.786 183.214 384.24V386.118C183.214 386.687 183.319 387.178 183.529 387.592C183.743 388.006 184.045 388.325 184.434 388.55C184.823 388.774 185.285 388.887 185.818 388.887C186.173 388.887 186.497 388.837 186.791 388.737C187.085 388.637 187.337 388.488 187.547 388.288C187.756 388.088 187.916 387.844 188.026 387.555L190.974 387.749C190.824 388.458 190.518 389.076 190.054 389.605C189.595 390.129 189.001 390.538 188.273 390.832C187.549 391.122 186.714 391.266 185.766 391.266ZM219.216 391.042V389.141L224.844 382.174V382.092H219.411V379.548H228.682V381.621L223.399 388.415V388.498H228.877V391.042H219.216ZM234.592 391.259C233.859 391.259 233.205 391.132 232.631 390.877C232.058 390.618 231.604 390.236 231.269 389.732C230.94 389.223 230.776 388.59 230.776 387.832C230.776 387.193 230.893 386.657 231.127 386.223C231.362 385.789 231.681 385.44 232.085 385.175C232.489 384.911 232.948 384.711 233.462 384.576C233.981 384.442 234.525 384.347 235.093 384.292C235.762 384.222 236.3 384.157 236.71 384.098C237.119 384.033 237.415 383.938 237.6 383.813C237.785 383.689 237.877 383.504 237.877 383.26V383.215C237.877 382.741 237.727 382.374 237.428 382.115C237.134 381.855 236.715 381.726 236.171 381.726C235.597 381.726 235.141 381.853 234.801 382.107C234.462 382.357 234.238 382.671 234.128 383.05L231.18 382.811C231.329 382.112 231.624 381.509 232.063 381C232.502 380.486 233.068 380.092 233.761 379.817C234.46 379.538 235.268 379.398 236.186 379.398C236.824 379.398 237.435 379.473 238.019 379.623C238.608 379.772 239.129 380.004 239.583 380.319C240.042 380.633 240.404 381.037 240.668 381.531C240.932 382.02 241.065 382.606 241.065 383.289V391.042H238.042V389.448H237.952C237.767 389.807 237.52 390.124 237.211 390.398C236.902 390.668 236.53 390.88 236.096 391.034C235.662 391.184 235.161 391.259 234.592 391.259ZM235.505 389.059C235.974 389.059 236.388 388.966 236.747 388.782C237.106 388.592 237.388 388.338 237.593 388.019C237.797 387.699 237.899 387.338 237.899 386.934V385.714C237.8 385.779 237.662 385.839 237.488 385.893C237.318 385.943 237.126 385.991 236.912 386.036C236.697 386.076 236.483 386.113 236.268 386.148C236.054 386.178 235.859 386.205 235.684 386.23C235.31 386.285 234.984 386.372 234.704 386.492C234.425 386.612 234.208 386.774 234.053 386.979C233.898 387.178 233.821 387.427 233.821 387.727C233.821 388.161 233.978 388.493 234.293 388.722C234.612 388.947 235.016 389.059 235.505 389.059ZM246.815 391.259C246.082 391.259 245.428 391.132 244.855 390.877C244.281 390.618 243.827 390.236 243.493 389.732C243.164 389.223 242.999 388.59 242.999 387.832C242.999 387.193 243.116 386.657 243.351 386.223C243.585 385.789 243.904 385.44 244.308 385.175C244.713 384.911 245.171 384.711 245.685 384.576C246.204 384.442 246.748 384.347 247.317 384.292C247.985 384.222 248.524 384.157 248.933 384.098C249.342 384.033 249.639 383.938 249.823 383.813C250.008 383.689 250.1 383.504 250.1 383.26V383.215C250.1 382.741 249.951 382.374 249.651 382.115C249.357 381.855 248.938 381.726 248.394 381.726C247.82 381.726 247.364 381.853 247.025 382.107C246.686 382.357 246.461 382.671 246.351 383.05L243.403 382.811C243.553 382.112 243.847 381.509 244.286 381C244.725 380.486 245.291 380.092 245.985 379.817C246.683 379.538 247.491 379.398 248.409 379.398C249.048 379.398 249.659 379.473 250.242 379.623C250.831 379.772 251.352 380.004 251.806 380.319C252.265 380.633 252.627 381.037 252.891 381.531C253.156 382.02 253.288 382.606 253.288 383.289V391.042H250.265V389.448H250.175C249.99 389.807 249.744 390.124 249.434 390.398C249.125 390.668 248.753 390.88 248.319 391.034C247.885 391.184 247.384 391.259 246.815 391.259ZM247.728 389.059C248.197 389.059 248.611 388.966 248.97 388.782C249.329 388.592 249.611 388.338 249.816 388.019C250.02 387.699 250.123 387.338 250.123 386.934V385.714C250.023 385.779 249.886 385.839 249.711 385.893C249.541 385.943 249.349 385.991 249.135 386.036C248.92 386.076 248.706 386.113 248.491 386.148C248.277 386.178 248.082 386.205 247.908 386.23C247.534 386.285 247.207 386.372 246.927 386.492C246.648 386.612 246.431 386.774 246.276 386.979C246.122 387.178 246.044 387.427 246.044 387.727C246.044 388.161 246.202 388.493 246.516 388.722C246.835 388.947 247.239 389.059 247.728 389.059ZM255.761 391.042V379.548H258.851V381.553H258.971C259.181 380.84 259.532 380.301 260.026 379.937C260.52 379.568 261.089 379.383 261.732 379.383C261.892 379.383 262.064 379.393 262.249 379.413C262.433 379.433 262.595 379.461 262.735 379.496V382.324C262.585 382.279 262.378 382.239 262.114 382.204C261.85 382.169 261.608 382.152 261.388 382.152C260.919 382.152 260.5 382.254 260.131 382.459C259.767 382.658 259.478 382.938 259.263 383.297C259.053 383.656 258.949 384.07 258.949 384.539V391.042H255.761Z" fill="black"/>
<path d="M193.182 391.042V375.717H199.318C200.445 375.717 201.385 375.884 202.139 376.218C202.892 376.552 203.458 377.016 203.837 377.61C204.216 378.199 204.406 378.877 204.406 379.645C204.406 380.244 204.286 380.77 204.047 381.224C203.807 381.673 203.478 382.042 203.059 382.332C202.645 382.616 202.171 382.818 201.637 382.938V383.087C202.221 383.112 202.767 383.277 203.276 383.581C203.79 383.886 204.206 384.312 204.526 384.861C204.845 385.405 205.005 386.053 205.005 386.806C205.005 387.62 204.802 388.345 204.398 388.984C203.999 389.617 203.408 390.119 202.625 390.488C201.842 390.857 200.876 391.042 199.729 391.042H193.182ZM196.422 388.393H199.063C199.966 388.393 200.625 388.221 201.039 387.876C201.453 387.527 201.66 387.063 201.66 386.485C201.66 386.061 201.557 385.686 201.353 385.362C201.148 385.038 200.856 384.784 200.477 384.599C200.103 384.414 199.657 384.322 199.138 384.322H196.422V388.393ZM196.422 382.13H198.824C199.268 382.13 199.662 382.052 200.006 381.898C200.355 381.738 200.63 381.513 200.829 381.224C201.034 380.935 201.136 380.588 201.136 380.184C201.136 379.63 200.939 379.184 200.545 378.845C200.156 378.505 199.602 378.336 198.884 378.336H196.422V382.13ZM210.33 391.259C209.597 391.259 208.944 391.132 208.37 390.877C207.796 390.618 207.342 390.236 207.008 389.732C206.679 389.223 206.514 388.59 206.514 387.832C206.514 387.193 206.631 386.657 206.866 386.223C207.1 385.789 207.42 385.44 207.824 385.175C208.228 384.911 208.687 384.711 209.201 384.576C209.719 384.442 210.263 384.347 210.832 384.292C211.5 384.222 212.039 384.157 212.448 384.098C212.857 384.033 213.154 383.938 213.339 383.813C213.523 383.689 213.615 383.504 213.615 383.26V383.215C213.615 382.741 213.466 382.374 213.166 382.115C212.872 381.855 212.453 381.726 211.909 381.726C211.336 381.726 210.879 381.853 210.54 382.107C210.201 382.357 209.976 382.671 209.867 383.05L206.918 382.811C207.068 382.112 207.362 381.509 207.801 381C208.24 380.486 208.806 380.092 209.5 379.817C210.198 379.538 211.006 379.398 211.924 379.398C212.563 379.398 213.174 379.473 213.758 379.623C214.346 379.772 214.868 380.004 215.322 380.319C215.781 380.633 216.142 381.037 216.407 381.531C216.671 382.02 216.803 382.606 216.803 383.289V391.042H213.78V389.448H213.69C213.506 389.807 213.259 390.124 212.949 390.398C212.64 390.668 212.269 390.88 211.835 391.034C211.401 391.184 210.899 391.259 210.33 391.259ZM211.243 389.059C211.712 389.059 212.126 388.966 212.486 388.782C212.845 388.592 213.127 388.338 213.331 388.019C213.536 387.699 213.638 387.338 213.638 386.934V385.714C213.538 385.779 213.401 385.839 213.226 385.893C213.057 385.943 212.865 385.991 212.65 386.036C212.436 386.076 212.221 386.113 212.007 386.148C211.792 386.178 211.598 386.205 211.423 386.23C211.049 386.285 210.722 386.372 210.443 386.492C210.163 386.612 209.946 386.774 209.792 386.979C209.637 387.178 209.56 387.427 209.56 387.727C209.56 388.161 209.717 388.493 210.031 388.722C210.35 388.947 210.755 389.059 211.243 389.059Z" fill="#1EA707"/>
</g>
<path d="M205.304 331.467C198.084 246.302 184.232 123.09 167.55 309.345" stroke="#1EA707" stroke-width="8.77993"/>
<path d="M255.641 328.248C255.641 293.713 237.496 124.261 217.888 309.81" stroke="#1EA707" stroke-width="8.77993"/>
<path d="M197.258 403.65V398.541H199.044C199.4 398.541 199.694 398.603 199.925 398.726C200.156 398.847 200.328 399.011 200.441 399.217C200.554 399.422 200.611 399.649 200.611 399.898C200.611 400.118 200.572 400.299 200.493 400.442C200.417 400.585 200.315 400.698 200.189 400.781C200.064 400.864 199.929 400.926 199.783 400.966V401.016C199.939 401.026 200.096 401.08 200.254 401.18C200.412 401.28 200.544 401.423 200.651 401.609C200.757 401.795 200.81 402.023 200.81 402.293C200.81 402.549 200.752 402.779 200.636 402.984C200.519 403.188 200.335 403.35 200.084 403.47C199.833 403.59 199.506 403.65 199.104 403.65H197.258ZM197.877 403.101H199.104C199.508 403.101 199.795 403.023 199.965 402.866C200.136 402.708 200.222 402.517 200.222 402.293C200.222 402.12 200.177 401.96 200.089 401.814C200.001 401.666 199.876 401.548 199.713 401.46C199.55 401.37 199.357 401.325 199.134 401.325H197.877V403.101ZM197.877 400.786H199.024C199.21 400.786 199.378 400.749 199.528 400.676C199.679 400.603 199.799 400.5 199.887 400.367C199.977 400.234 200.022 400.078 200.022 399.898C200.022 399.674 199.944 399.483 199.788 399.327C199.631 399.169 199.383 399.09 199.044 399.09H197.877V400.786ZM202.126 405.086C202.026 405.086 201.937 405.078 201.859 405.061C201.781 405.046 201.727 405.031 201.697 405.016L201.847 404.498C201.99 404.534 202.116 404.547 202.226 404.537C202.335 404.527 202.433 404.478 202.518 404.39C202.604 404.304 202.683 404.163 202.754 403.969L202.864 403.669L201.447 399.818H202.086L203.144 402.871H203.184L204.241 399.818H204.88L203.253 404.208C203.18 404.406 203.09 404.57 202.981 404.7C202.873 404.831 202.748 404.928 202.605 404.991C202.463 405.055 202.304 405.086 202.126 405.086ZM208.64 403.65L207.243 398.541H207.872L208.939 402.702H208.989L210.076 398.541H210.775L211.862 402.702H211.912L212.98 398.541H213.608L212.212 403.65H211.573L210.446 399.579H210.406L209.278 403.65H208.64ZM214.299 403.65V399.818H214.888V403.65H214.299ZM214.599 399.18C214.484 399.18 214.385 399.141 214.302 399.062C214.22 398.984 214.18 398.89 214.18 398.781C214.18 398.671 214.22 398.577 214.302 398.499C214.385 398.421 214.484 398.382 214.599 398.382C214.713 398.382 214.812 398.421 214.893 398.499C214.976 398.577 215.018 398.671 215.018 398.781C215.018 398.89 214.976 398.984 214.893 399.062C214.812 399.141 214.713 399.18 214.599 399.18ZM216.555 401.345V403.65H215.966V399.818H216.535V400.417H216.585C216.675 400.222 216.811 400.066 216.994 399.948C217.177 399.828 217.413 399.768 217.702 399.768C217.962 399.768 218.189 399.822 218.383 399.928C218.578 400.033 218.729 400.192 218.837 400.407C218.945 400.62 218.999 400.889 218.999 401.215V403.65H218.411V401.255C218.411 400.954 218.332 400.72 218.176 400.552C218.02 400.382 217.805 400.297 217.533 400.297C217.345 400.297 217.177 400.338 217.029 400.419C216.882 400.501 216.767 400.62 216.682 400.776C216.597 400.932 216.555 401.122 216.555 401.345ZM221.621 405.166C221.337 405.166 221.093 405.129 220.888 405.056C220.684 404.985 220.513 404.89 220.377 404.772C220.242 404.656 220.135 404.531 220.055 404.398L220.524 404.069C220.577 404.138 220.644 404.218 220.726 404.308C220.807 404.399 220.919 404.478 221.06 404.545C221.203 404.613 221.39 404.647 221.621 404.647C221.931 404.647 222.186 404.572 222.387 404.423C222.588 404.273 222.689 404.039 222.689 403.719V402.941H222.639C222.596 403.011 222.534 403.097 222.454 403.201C222.376 403.302 222.263 403.393 222.115 403.472C221.969 403.551 221.771 403.59 221.522 403.59C221.212 403.59 220.935 403.516 220.688 403.37C220.444 403.224 220.25 403.011 220.107 402.732C219.966 402.452 219.895 402.113 219.895 401.714C219.895 401.321 219.964 400.98 220.102 400.689C220.24 400.396 220.432 400.17 220.679 400.01C220.925 399.849 221.209 399.768 221.532 399.768C221.781 399.768 221.979 399.81 222.125 399.893C222.273 399.975 222.386 400.068 222.464 400.172C222.544 400.276 222.606 400.36 222.649 400.427H222.709V399.818H223.278V403.759C223.278 404.089 223.203 404.356 223.053 404.562C222.905 404.77 222.706 404.922 222.454 405.019C222.205 405.117 221.927 405.166 221.621 405.166ZM221.601 403.061C221.838 403.061 222.037 403.007 222.2 402.899C222.363 402.791 222.487 402.635 222.572 402.432C222.656 402.229 222.699 401.987 222.699 401.704C222.699 401.428 222.657 401.184 222.574 400.973C222.491 400.762 222.368 400.596 222.205 400.477C222.042 400.357 221.841 400.297 221.601 400.297C221.352 400.297 221.144 400.36 220.978 400.487C220.813 400.613 220.689 400.783 220.606 400.996C220.525 401.208 220.484 401.445 220.484 401.704C220.484 401.97 220.526 402.205 220.609 402.41C220.693 402.613 220.818 402.772 220.983 402.889C221.149 403.003 221.355 403.061 221.601 403.061ZM227.069 400.676L226.54 400.826C226.507 400.738 226.458 400.652 226.393 400.569C226.33 400.484 226.243 400.414 226.134 400.36C226.024 400.305 225.883 400.277 225.712 400.277C225.478 400.277 225.282 400.331 225.126 400.439C224.971 400.546 224.894 400.681 224.894 400.846C224.894 400.992 224.947 401.108 225.054 401.193C225.16 401.277 225.326 401.348 225.552 401.405L226.121 401.544C226.464 401.627 226.719 401.755 226.887 401.926C227.055 402.096 227.139 402.314 227.139 402.582C227.139 402.801 227.076 402.998 226.949 403.171C226.824 403.344 226.65 403.48 226.425 403.58C226.201 403.679 225.94 403.729 225.642 403.729C225.251 403.729 224.928 403.645 224.672 403.475C224.416 403.305 224.254 403.058 224.186 402.732L224.744 402.592C224.797 402.798 224.898 402.953 225.046 403.056C225.196 403.159 225.391 403.211 225.632 403.211C225.907 403.211 226.124 403.152 226.286 403.036C226.449 402.918 226.53 402.777 226.53 402.612C226.53 402.479 226.484 402.367 226.39 402.278C226.297 402.186 226.154 402.118 225.961 402.073L225.323 401.923C224.972 401.84 224.714 401.711 224.55 401.537C224.387 401.361 224.305 401.14 224.305 400.876C224.305 400.66 224.366 400.468 224.487 400.302C224.61 400.136 224.777 400.005 224.989 399.911C225.202 399.816 225.443 399.768 225.712 399.768C226.091 399.768 226.389 399.852 226.605 400.018C226.823 400.184 226.977 400.404 227.069 400.676ZM229.801 399.09V398.541H233.632V399.09H232.026V403.65H231.407V399.09H229.801ZM235.558 403.729C235.188 403.729 234.87 403.648 234.602 403.485C234.336 403.32 234.131 403.091 233.986 402.796C233.843 402.5 233.772 402.156 233.772 401.764C233.772 401.371 233.843 401.026 233.986 400.726C234.131 400.425 234.332 400.191 234.59 400.023C234.849 399.853 235.152 399.768 235.498 399.768C235.697 399.768 235.894 399.802 236.089 399.868C236.283 399.935 236.461 400.043 236.62 400.192C236.78 400.34 236.907 400.537 237.002 400.781C237.097 401.026 237.144 401.326 237.144 401.684V401.933H234.191V401.425H236.545C236.545 401.208 236.502 401.016 236.416 400.846C236.331 400.676 236.209 400.542 236.052 400.444C235.895 400.346 235.711 400.297 235.498 400.297C235.263 400.297 235.06 400.355 234.889 400.472C234.72 400.587 234.589 400.736 234.498 400.921C234.406 401.105 234.36 401.303 234.36 401.514V401.854C234.36 402.143 234.41 402.388 234.51 402.589C234.611 402.789 234.752 402.941 234.932 403.046C235.111 403.149 235.32 403.201 235.558 403.201C235.712 403.201 235.852 403.179 235.977 403.136C236.103 403.091 236.212 403.024 236.303 402.936C236.395 402.846 236.466 402.735 236.515 402.602L237.084 402.762C237.024 402.954 236.924 403.124 236.782 403.27C236.641 403.415 236.466 403.528 236.259 403.61C236.051 403.689 235.817 403.729 235.558 403.729ZM239.596 403.729C239.237 403.729 238.927 403.645 238.668 403.475C238.409 403.305 238.209 403.072 238.069 402.774C237.93 402.476 237.86 402.136 237.86 401.754C237.86 401.365 237.931 401.021 238.074 400.724C238.219 400.424 238.42 400.191 238.678 400.023C238.937 399.853 239.24 399.768 239.586 399.768C239.855 399.768 240.098 399.818 240.314 399.918C240.53 400.018 240.708 400.157 240.846 400.337C240.984 400.517 241.069 400.726 241.102 400.966H240.514C240.469 400.791 240.369 400.636 240.215 400.502C240.062 400.365 239.855 400.297 239.596 400.297C239.366 400.297 239.165 400.357 238.992 400.477C238.821 400.595 238.687 400.762 238.591 400.978C238.496 401.193 238.449 401.445 238.449 401.734C238.449 402.03 238.495 402.288 238.588 402.507C238.683 402.727 238.816 402.897 238.987 403.018C239.16 403.14 239.363 403.201 239.596 403.201C239.749 403.201 239.888 403.174 240.012 403.121C240.137 403.068 240.243 402.991 240.329 402.891C240.416 402.791 240.477 402.672 240.514 402.532H241.102C241.069 402.758 240.987 402.962 240.856 403.143C240.726 403.323 240.554 403.466 240.339 403.572C240.126 403.677 239.879 403.729 239.596 403.729ZM242.552 401.345V403.65H241.963V398.541H242.552V400.417H242.602C242.691 400.219 242.826 400.062 243.006 399.945C243.187 399.827 243.428 399.768 243.729 399.768C243.99 399.768 244.219 399.821 244.415 399.926C244.611 400.029 244.763 400.187 244.871 400.402C244.981 400.615 245.036 400.886 245.036 401.215V403.65H244.447V401.255C244.447 400.951 244.368 400.715 244.21 400.549C244.054 400.381 243.837 400.297 243.559 400.297C243.366 400.297 243.194 400.338 243.041 400.419C242.889 400.501 242.769 400.62 242.681 400.776C242.595 400.932 242.552 401.122 242.552 401.345Z" fill="#5E5B5B"/>
<defs>
<filter id="filter0_f_558_69" x="164" y="441.61" width="266" height="25" filterUnits="userSpaceOnUse" color-interpolation-filters="sRGB">
<feFlood flood-opacity="0" result="BackgroundImageFix"/>
<feBlend mode="normal" in="SourceGraphic" in2="BackgroundImageFix" result="shape"/>
<feGaussianBlur stdDeviation="2" result="effect1_foregroundBlur_558_69"/>
</filter>
<filter id="filter1_f_558_69" x="306.288" y="463.615" width="75.9019" height="7.13364" filterUnits="userSpaceOnUse" color-interpolation-filters="sRGB">
<feFlood flood-opacity="0" result="BackgroundImageFix"/>
<feBlend mode="normal" in="SourceGraphic" in2="BackgroundImageFix" result="shape"/>
<feGaussianBlur stdDeviation="0.570691" result="effect1_foregroundBlur_558_69"/>
</filter>
<filter id="filter2_f_558_69" x="117.797" y="465.572" width="155.698" height="14.6332" filterUnits="userSpaceOnUse" color-interpolation-filters="sRGB">
<feFlood flood-opacity="0" result="BackgroundImageFix"/>
<feBlend mode="normal" in="SourceGraphic" in2="BackgroundImageFix" result="shape"/>
<feGaussianBlur stdDeviation="1.17066" result="effect1_foregroundBlur_558_69"/>
</filter>
<radialGradient id="paint0_radial_558_69" cx="0" cy="0" r="1" gradientUnits="userSpaceOnUse" gradientTransform="translate(126.483 454.61) rotate(-0.0956468) scale(299.518 19.7356)">
<stop stop-color="#322E2E"/>
<stop offset="1" stop-color="#988D8D"/>
</radialGradient>
<radialGradient id="paint1_radial_558_69" cx="0" cy="0" r="1" gradientUnits="userSpaceOnUse" gradientTransform="translate(295.582 467.325) rotate(-0.0956468) scale(85.466 5.63148)">
<stop stop-color="#322E2E"/>
<stop offset="1" stop-color="#988D8D"/>
</radialGradient>
<radialGradient id="paint2_radial_558_69" cx="0" cy="0" r="1" gradientUnits="userSpaceOnUse" gradientTransform="translate(95.8369 473.181) rotate(-0.0956468) scale(175.316 11.5518)">
<stop stop-color="#322E2E"/>
<stop offset="1" stop-color="#988D8D"/>
</radialGradient>
</defs>
</svg>
