<svg width="29" height="29" viewBox="0 0 29 29" fill="none" xmlns="http://www.w3.org/2000/svg">
<path fill-rule="evenodd" clip-rule="evenodd" d="M8.4873 4.53126C8.4873 3.36401 9.43464 2.41667 10.6019 2.41667H24.4687C25.636 2.41667 26.5833 3.36401 26.5833 4.53126V18.4247C26.5833 18.9855 26.3605 19.5233 25.964 19.9199C25.5674 20.3165 25.0295 20.5393 24.4687 20.5393H10.6019C10.0411 20.5393 9.50321 20.3165 9.10665 19.9199C8.71009 19.5233 8.4873 18.9855 8.4873 18.4247V4.53126ZM10.6019 4.22917C10.5218 4.22917 10.4449 4.261 10.3883 4.31765C10.3316 4.3743 10.2998 4.45114 10.2998 4.53126V18.4247C10.2998 18.5926 10.4351 18.7268 10.6019 18.7268H24.4687C24.5488 18.7268 24.6257 18.6949 24.6823 18.6383C24.739 18.5816 24.7708 18.5048 24.7708 18.4247V4.53126C24.7708 4.45114 24.739 4.3743 24.6823 4.31765C24.6257 4.261 24.5488 4.22917 24.4687 4.22917H10.6019Z" fill="#808080"/>
<path d="M2.41064 12.9884C2.41049 12.7106 2.46506 12.4355 2.57126 12.1788C2.67746 11.9221 2.83319 11.6888 3.02956 11.4924C3.22594 11.2959 3.4591 11.14 3.71573 11.0337C3.97236 10.9273 4.24744 10.8726 4.52523 10.8726H6.34377C6.58412 10.8726 6.81463 10.9681 6.98459 11.138C7.15454 11.308 7.25002 11.5385 7.25002 11.7788C7.25002 12.0192 7.15454 12.2497 6.98459 12.4197C6.81463 12.5896 6.58412 12.6851 6.34377 12.6851H4.52523C4.44511 12.6851 4.36827 12.7169 4.31162 12.7736C4.25497 12.8302 4.22314 12.9071 4.22314 12.9872L4.22919 24.4688C4.22919 24.6355 4.36331 24.7708 4.53127 24.7708H16.0104C16.0906 24.7708 16.1674 24.739 16.224 24.6824C16.2807 24.6257 16.3125 24.5489 16.3125 24.4688V22.6442C16.3125 22.4038 16.408 22.1733 16.578 22.0034C16.7479 21.8334 16.9784 21.7379 17.2188 21.7379C17.4591 21.7379 17.6896 21.8334 17.8596 22.0034C18.0295 22.1733 18.125 22.4038 18.125 22.6442V24.4688C18.125 25.0296 17.9022 25.5674 17.5057 25.964C17.1091 26.3606 16.5713 26.5833 16.0104 26.5833H4.53127C3.97045 26.5833 3.4326 26.3606 3.03603 25.964C2.63947 25.5674 2.41669 25.0296 2.41669 24.4688L2.41064 12.9884Z" fill="#808080"/>
</svg>
