<svg width="127" height="24" viewBox="0 0 127 24" fill="none" xmlns="http://www.w3.org/2000/svg">
<path d="M8.70312 5.20312C10.3177 5.20312 11.7083 5.51562 12.875 6.14062C14.0417 6.75521 14.9427 7.65104 15.5781 8.82812C16.2135 10.0052 16.5312 11.4427 16.5312 13.1406V15.4531H5.26562C5.31771 16.7969 5.71875 17.8542 6.46875 18.625C7.22917 19.3854 8.28125 19.7656 9.625 19.7656C10.7396 19.7656 11.7604 19.651 12.6875 19.4219C13.6146 19.1927 14.5677 18.849 15.5469 18.3906V22.0781C14.6823 22.5052 13.776 22.8177 12.8281 23.0156C11.8906 23.2135 10.75 23.3125 9.40625 23.3125C7.65625 23.3125 6.10417 22.9896 4.75 22.3438C3.40625 21.6979 2.34896 20.7135 1.57812 19.3906C0.817708 18.0677 0.4375 16.401 0.4375 14.3906C0.4375 12.349 0.78125 10.651 1.46875 9.29688C2.16667 7.93229 3.13542 6.91146 4.375 6.23438C5.61458 5.54688 7.05729 5.20312 8.70312 5.20312ZM8.73438 8.59375C7.80729 8.59375 7.03646 8.89062 6.42188 9.48438C5.81771 10.0781 5.46875 11.0104 5.375 12.2812H12.0625C12.0521 11.5729 11.9219 10.9427 11.6719 10.3906C11.4323 9.83854 11.0677 9.40104 10.5781 9.07812C10.099 8.75521 9.48438 8.59375 8.73438 8.59375ZM73.4062 23H59.6094V20.1875L67.7031 9.17188H60.0938V5.53125H73.125V8.625L65.25 19.3594H73.4062V23ZM84.0312 5.17188C86.375 5.17188 88.1719 5.68229 89.4219 6.70312C90.6719 7.72396 91.2969 9.27604 91.2969 11.3594V23H87.9688L87.0469 20.625H86.9219C86.4219 21.25 85.9115 21.7604 85.3906 22.1562C84.8698 22.5521 84.2708 22.8438 83.5938 23.0312C82.9167 23.2188 82.0938 23.3125 81.125 23.3125C80.0938 23.3125 79.1667 23.1146 78.3438 22.7188C77.5312 22.3229 76.8906 21.7188 76.4219 20.9062C75.9531 20.0833 75.7188 19.0417 75.7188 17.7812C75.7188 15.9271 76.3698 14.5625 77.6719 13.6875C78.974 12.8021 80.9271 12.3125 83.5312 12.2188L86.5625 12.125V11.3594C86.5625 10.4427 86.3229 9.77083 85.8438 9.34375C85.3646 8.91667 84.6979 8.70312 83.8438 8.70312C83 8.70312 82.1719 8.82292 81.3594 9.0625C80.5469 9.30208 79.7344 9.60417 78.9219 9.96875L77.3438 6.75C78.2708 6.26042 79.3073 5.875 80.4531 5.59375C81.6094 5.3125 82.8021 5.17188 84.0312 5.17188ZM86.5625 14.9062L84.7188 14.9688C83.1771 15.0104 82.1042 15.2865 81.5 15.7969C80.9062 16.3073 80.6094 16.9792 80.6094 17.8125C80.6094 18.5417 80.8229 19.0625 81.25 19.375C81.6771 19.6771 82.2344 19.8281 82.9219 19.8281C83.9427 19.8281 84.8021 19.526 85.5 18.9219C86.2083 18.3177 86.5625 17.4583 86.5625 16.3438V14.9062ZM103.375 5.17188C105.719 5.17188 107.516 5.68229 108.766 6.70312C110.016 7.72396 110.641 9.27604 110.641 11.3594V23H107.312L106.391 20.625H106.266C105.766 21.25 105.255 21.7604 104.734 22.1562C104.214 22.5521 103.615 22.8438 102.938 23.0312C102.26 23.2188 101.438 23.3125 100.469 23.3125C99.4375 23.3125 98.5104 23.1146 97.6875 22.7188C96.875 22.3229 96.2344 21.7188 95.7656 20.9062C95.2969 20.0833 95.0625 19.0417 95.0625 17.7812C95.0625 15.9271 95.7135 14.5625 97.0156 13.6875C98.3177 12.8021 100.271 12.3125 102.875 12.2188L105.906 12.125V11.3594C105.906 10.4427 105.667 9.77083 105.188 9.34375C104.708 8.91667 104.042 8.70312 103.188 8.70312C102.344 8.70312 101.516 8.82292 100.703 9.0625C99.8906 9.30208 99.0781 9.60417 98.2656 9.96875L96.6875 6.75C97.6146 6.26042 98.651 5.875 99.7969 5.59375C100.953 5.3125 102.146 5.17188 103.375 5.17188ZM105.906 14.9062L104.062 14.9688C102.521 15.0104 101.448 15.2865 100.844 15.7969C100.25 16.3073 99.9531 16.9792 99.9531 17.8125C99.9531 18.5417 100.167 19.0625 100.594 19.375C101.021 19.6771 101.578 19.8281 102.266 19.8281C103.286 19.8281 104.146 19.526 104.844 18.9219C105.552 18.3177 105.906 17.4583 105.906 16.3438V14.9062ZM125.312 5.20312C125.552 5.20312 125.828 5.21875 126.141 5.25C126.464 5.27083 126.724 5.30208 126.922 5.34375L126.562 9.8125C126.406 9.76042 126.182 9.72396 125.891 9.70312C125.609 9.67188 125.365 9.65625 125.156 9.65625C124.542 9.65625 123.943 9.73438 123.359 9.89062C122.786 10.0469 122.271 10.3021 121.812 10.6562C121.354 11 120.99 11.4583 120.719 12.0312C120.458 12.5938 120.328 13.2865 120.328 14.1094V23H115.562V5.53125H119.172L119.875 8.46875H120.109C120.453 7.875 120.88 7.33333 121.391 6.84375C121.911 6.34375 122.5 5.94792 123.156 5.65625C123.823 5.35417 124.542 5.20312 125.312 5.20312Z" fill="#404040"/>
<path d="M20.7812 0.15625H27.8906C30.9323 0.15625 33.2344 0.583333 34.7969 1.4375C36.3594 2.29167 37.1406 3.79167 37.1406 5.9375C37.1406 6.80208 37 7.58333 36.7188 8.28125C36.4479 8.97917 36.0521 9.55208 35.5312 10C35.0104 10.4479 34.375 10.7396 33.625 10.875V11.0312C34.3854 11.1875 35.0729 11.4583 35.6875 11.8438C36.3021 12.2188 36.7917 12.7708 37.1562 13.5C37.5312 14.2188 37.7188 15.1771 37.7188 16.375C37.7188 17.7604 37.3802 18.9479 36.7031 19.9375C36.026 20.9271 35.0573 21.6875 33.7969 22.2188C32.5469 22.7396 31.0573 23 29.3281 23H20.7812V0.15625ZM25.625 9.20312H28.4375C29.8438 9.20312 30.8177 8.98438 31.3594 8.54688C31.901 8.09896 32.1719 7.44271 32.1719 6.57812C32.1719 5.70312 31.849 5.07812 31.2031 4.70312C30.5677 4.31771 29.5573 4.125 28.1719 4.125H25.625V9.20312ZM25.625 13.0469V19H28.7812C30.2396 19 31.2552 18.7188 31.8281 18.1562C32.401 17.5938 32.6875 16.8385 32.6875 15.8906C32.6875 15.3281 32.5625 14.8333 32.3125 14.4062C32.0625 13.9792 31.6406 13.6458 31.0469 13.4062C30.4635 13.1667 29.6562 13.0469 28.625 13.0469H25.625ZM49.0625 5.17188C51.4062 5.17188 53.2031 5.68229 54.4531 6.70312C55.7031 7.72396 56.3281 9.27604 56.3281 11.3594V23H53L52.0781 20.625H51.9531C51.4531 21.25 50.9427 21.7604 50.4219 22.1562C49.901 22.5521 49.3021 22.8438 48.625 23.0312C47.9479 23.2188 47.125 23.3125 46.1562 23.3125C45.125 23.3125 44.1979 23.1146 43.375 22.7188C42.5625 22.3229 41.9219 21.7188 41.4531 20.9062C40.9844 20.0833 40.75 19.0417 40.75 17.7812C40.75 15.9271 41.401 14.5625 42.7031 13.6875C44.0052 12.8021 45.9583 12.3125 48.5625 12.2188L51.5938 12.125V11.3594C51.5938 10.4427 51.3542 9.77083 50.875 9.34375C50.3958 8.91667 49.7292 8.70312 48.875 8.70312C48.0312 8.70312 47.2031 8.82292 46.3906 9.0625C45.5781 9.30208 44.7656 9.60417 43.9531 9.96875L42.375 6.75C43.3021 6.26042 44.3385 5.875 45.4844 5.59375C46.6406 5.3125 47.8333 5.17188 49.0625 5.17188ZM51.5938 14.9062L49.75 14.9688C48.2083 15.0104 47.1354 15.2865 46.5312 15.7969C45.9375 16.3073 45.6406 16.9792 45.6406 17.8125C45.6406 18.5417 45.8542 19.0625 46.2812 19.375C46.7083 19.6771 47.2656 19.8281 47.9531 19.8281C48.974 19.8281 49.8333 19.526 50.5312 18.9219C51.2396 18.3177 51.5938 17.4583 51.5938 16.3438V14.9062Z" fill="#00897B"/>
</svg>
