<svg width="98" height="33" viewBox="0 0 98 33" fill="none" xmlns="http://www.w3.org/2000/svg">
<path d="M8.70312 7.20312C10.3177 7.20312 11.7083 7.51562 12.875 8.14062C14.0417 8.75521 14.9427 9.65104 15.5781 10.8281C16.2135 12.0052 16.5312 13.4427 16.5312 15.1406V17.4531H5.26562C5.31771 18.7969 5.71875 19.8542 6.46875 20.625C7.22917 21.3854 8.28125 21.7656 9.625 21.7656C10.7396 21.7656 11.7604 21.651 12.6875 21.4219C13.6146 21.1927 14.5677 20.849 15.5469 20.3906V24.0781C14.6823 24.5052 13.776 24.8177 12.8281 25.0156C11.8906 25.2135 10.75 25.3125 9.40625 25.3125C7.65625 25.3125 6.10417 24.9896 4.75 24.3438C3.40625 23.6979 2.34896 22.7135 1.57812 21.3906C0.817708 20.0677 0.4375 18.401 0.4375 16.3906C0.4375 14.349 0.78125 12.651 1.46875 11.2969C2.16667 9.93229 3.13542 8.91146 4.375 8.23438C5.61458 7.54688 7.05729 7.20312 8.70312 7.20312ZM8.73438 10.5938C7.80729 10.5938 7.03646 10.8906 6.42188 11.4844C5.81771 12.0781 5.46875 13.0104 5.375 14.2812H12.0625C12.0521 13.5729 11.9219 12.9427 11.6719 12.3906C11.4323 11.8385 11.0677 11.401 10.5781 11.0781C10.099 10.7552 9.48438 10.5938 8.73438 10.5938ZM78.5625 16.2344C78.5625 17.6927 78.3646 18.9844 77.9688 20.1094C77.5833 21.2344 77.0156 22.1875 76.2656 22.9688C75.526 23.7396 74.6302 24.3229 73.5781 24.7188C72.5365 25.1146 71.3594 25.3125 70.0469 25.3125C68.8177 25.3125 67.6875 25.1146 66.6562 24.7188C65.6354 24.3229 64.7448 23.7396 63.9844 22.9688C63.2344 22.1875 62.651 21.2344 62.2344 20.1094C61.8281 18.9844 61.625 17.6927 61.625 16.2344C61.625 14.2969 61.9688 12.6562 62.6562 11.3125C63.3438 9.96875 64.3229 8.94792 65.5938 8.25C66.8646 7.55208 68.3802 7.20312 70.1406 7.20312C71.776 7.20312 73.224 7.55208 74.4844 8.25C75.7552 8.94792 76.75 9.96875 77.4688 11.3125C78.1979 12.6562 78.5625 14.2969 78.5625 16.2344ZM66.4844 16.2344C66.4844 17.3802 66.6094 18.3438 66.8594 19.125C67.1094 19.9062 67.5 20.4948 68.0312 20.8906C68.5625 21.2865 69.2552 21.4844 70.1094 21.4844C70.9531 21.4844 71.6354 21.2865 72.1562 20.8906C72.6875 20.4948 73.0729 19.9062 73.3125 19.125C73.5625 18.3438 73.6875 17.3802 73.6875 16.2344C73.6875 15.0781 73.5625 14.1198 73.3125 13.3594C73.0729 12.5885 72.6875 12.0104 72.1562 11.625C71.625 11.2396 70.9323 11.0469 70.0781 11.0469C68.8177 11.0469 67.901 11.4792 67.3281 12.3438C66.7656 13.2083 66.4844 14.5052 66.4844 16.2344ZM81.0938 32.6875C80.5521 32.6875 79.9896 32.6458 79.4062 32.5625C78.8229 32.4896 78.3385 32.401 77.9531 32.2969V28.5469C78.3385 28.651 78.7031 28.724 79.0469 28.7656C79.3802 28.8177 79.7604 28.8438 80.1875 28.8438C80.8333 28.8438 81.3802 28.6615 81.8281 28.2969C82.276 27.9427 82.5 27.2396 82.5 26.1875V7.53125H87.2656V26.8906C87.2656 27.9531 87.0625 28.9219 86.6562 29.7969C86.25 30.6823 85.5938 31.3854 84.6875 31.9062C83.7812 32.4271 82.5833 32.6875 81.0938 32.6875ZM82.2969 3.01562C82.2969 2.11979 82.5469 1.51042 83.0469 1.1875C83.5573 0.854167 84.1719 0.6875 84.8906 0.6875C85.599 0.6875 86.2083 0.854167 86.7188 1.1875C87.2292 1.51042 87.4844 2.11979 87.4844 3.01562C87.4844 3.90104 87.2292 4.51562 86.7188 4.85938C86.2083 5.19271 85.599 5.35938 84.8906 5.35938C84.1719 5.35938 83.5573 5.19271 83.0469 4.85938C82.5469 4.51562 82.2969 3.90104 82.2969 3.01562ZM97.0469 7.53125V25H92.2812V7.53125H97.0469ZM94.6719 0.6875C95.3802 0.6875 95.9896 0.854167 96.5 1.1875C97.0104 1.51042 97.2656 2.11979 97.2656 3.01562C97.2656 3.90104 97.0104 4.51562 96.5 4.85938C95.9896 5.19271 95.3802 5.35938 94.6719 5.35938C93.9531 5.35938 93.3385 5.19271 92.8281 4.85938C92.3281 4.51562 92.0781 3.90104 92.0781 3.01562C92.0781 2.11979 92.3281 1.51042 92.8281 1.1875C93.3385 0.854167 93.9531 0.6875 94.6719 0.6875Z" fill="#404040"/>
<path d="M39.1562 25H33.6562L27.6719 15.375L25.625 16.8438V25H20.7812V2.15625H25.625V12.6094C25.9479 12.1615 26.2656 11.7135 26.5781 11.2656C26.8906 10.8177 27.2083 10.3698 27.5312 9.92188L33.7188 2.15625H39.0938L31.125 12.2656L39.1562 25ZM46.4219 0.6875V5.64062C46.4219 6.50521 46.3906 7.32812 46.3281 8.10938C46.276 8.89062 46.2344 9.44271 46.2031 9.76562H46.4531C46.8281 9.16146 47.2708 8.67188 47.7812 8.29688C48.3021 7.92188 48.875 7.64583 49.5 7.46875C50.125 7.29167 50.7969 7.20312 51.5156 7.20312C52.776 7.20312 53.875 7.42708 54.8125 7.875C55.75 8.3125 56.4792 9.00521 57 9.95312C57.5208 10.8906 57.7812 12.1094 57.7812 13.6094V25H53.0156V14.7969C53.0156 13.5469 52.7865 12.6042 52.3281 11.9688C51.8698 11.3333 51.1615 11.0156 50.2031 11.0156C49.2448 11.0156 48.4896 11.2396 47.9375 11.6875C47.3854 12.125 46.9948 12.776 46.7656 13.6406C46.5365 14.4948 46.4219 15.5417 46.4219 16.7812V25H41.6562V0.6875H46.4219Z" fill="#00897B"/>
</svg>
