<svg width="111" height="25" viewBox="0 0 111 25" fill="none" xmlns="http://www.w3.org/2000/svg">
<path d="M12.104 14.128C12.104 13.4667 12.008 12.864 11.816 12.32C11.6347 11.7653 11.3627 11.2907 11 10.896C10.648 10.4907 10.216 10.1813 9.704 9.968C9.192 9.744 8.61067 9.632 7.96 9.632C6.59467 9.632 5.512 10.032 4.712 10.832C3.92267 11.6213 3.432 12.72 3.24 14.128H12.104ZM14.408 21.728C14.056 22.1547 13.6347 22.528 13.144 22.848C12.6533 23.1573 12.1253 23.4133 11.56 23.616C11.0053 23.8187 10.4293 23.968 9.832 24.064C9.23467 24.1707 8.64267 24.224 8.056 24.224C6.936 24.224 5.90133 24.0373 4.952 23.664C4.01333 23.28 3.19733 22.7253 2.504 22C1.82133 21.264 1.288 20.3573 0.904 19.28C0.52 18.2027 0.328 16.9653 0.328 15.568C0.328 14.4373 0.498667 13.3813 0.84 12.4C1.192 11.4187 1.69333 10.5707 2.344 9.856C2.99467 9.13067 3.78933 8.56533 4.728 8.16C5.66667 7.744 6.72267 7.536 7.896 7.536C8.86667 7.536 9.76267 7.70133 10.584 8.032C11.416 8.352 12.1307 8.82133 12.728 9.44C13.336 10.048 13.8107 10.8053 14.152 11.712C14.4933 12.608 14.664 13.632 14.664 14.784C14.664 15.232 14.616 15.5307 14.52 15.68C14.424 15.8293 14.2427 15.904 13.976 15.904H3.144C3.176 16.928 3.31467 17.8187 3.56 18.576C3.816 19.3333 4.168 19.968 4.616 20.48C5.064 20.9813 5.59733 21.36 6.216 21.616C6.83467 21.8613 7.528 21.984 8.296 21.984C9.01067 21.984 9.624 21.904 10.136 21.744C10.6587 21.5733 11.1067 21.392 11.48 21.2C11.8533 21.008 12.1627 20.832 12.408 20.672C12.664 20.5013 12.8827 20.416 13.064 20.416C13.2987 20.416 13.48 20.5067 13.608 20.688L14.408 21.728ZM27.1383 20.64C27.9383 20.64 28.6103 20.544 29.1543 20.352C29.6983 20.16 30.1303 19.904 30.4503 19.584C30.7809 19.264 31.0156 18.8907 31.1543 18.464C31.3036 18.0373 31.3783 17.584 31.3783 17.104C31.3783 16.6027 31.2983 16.1547 31.1383 15.76C30.9783 15.3547 30.7276 15.0133 30.3863 14.736C30.0449 14.448 29.6023 14.2293 29.0583 14.08C28.5249 13.9307 27.8796 13.856 27.1223 13.856H22.7863V20.64H27.1383ZM22.7863 4.192V10.88H26.2103C27.6823 10.88 28.7916 10.6133 29.5383 10.08C30.2956 9.54667 30.6743 8.69867 30.6743 7.536C30.6743 6.33067 30.3329 5.472 29.6503 4.96C28.9676 4.448 27.9009 4.192 26.4503 4.192H22.7863ZM26.4503 0.863998C27.9649 0.863998 29.2609 1.008 30.3383 1.296C31.4156 1.584 32.2956 1.99467 32.9783 2.528C33.6716 3.06133 34.1783 3.70667 34.4983 4.464C34.8183 5.22133 34.9783 6.07467 34.9783 7.024C34.9783 7.568 34.8983 8.09067 34.7383 8.592C34.5783 9.08267 34.3276 9.54667 33.9862 9.984C33.6556 10.4107 33.2289 10.8 32.7063 11.152C32.1943 11.504 31.5809 11.8027 30.8663 12.048C34.0449 12.7627 35.6343 14.48 35.6343 17.2C35.6343 18.1813 35.4476 19.088 35.0743 19.92C34.7009 20.752 34.1569 21.472 33.4423 22.08C32.7276 22.6773 31.8476 23.1467 30.8023 23.488C29.7569 23.8293 28.5623 24 27.2183 24H18.4823V0.863998H26.4503ZM48.0088 16.704C46.6968 16.7467 45.5768 16.8533 44.6488 17.024C43.7314 17.184 42.9794 17.3973 42.3928 17.664C41.8168 17.9307 41.3954 18.2453 41.1288 18.608C40.8728 18.9707 40.7448 19.376 40.7448 19.824C40.7448 20.2507 40.8141 20.6187 40.9528 20.928C41.0914 21.2373 41.2781 21.4933 41.5128 21.696C41.7581 21.888 42.0408 22.032 42.3608 22.128C42.6914 22.2133 43.0434 22.256 43.4168 22.256C43.9181 22.256 44.3768 22.208 44.7928 22.112C45.2088 22.0053 45.5981 21.856 45.9608 21.664C46.3341 21.472 46.6861 21.2427 47.0168 20.976C47.3581 20.7093 47.6888 20.4053 48.0088 20.064V16.704ZM38.8088 10.08C39.7048 9.216 40.6701 8.57067 41.7048 8.144C42.7394 7.71733 43.8861 7.504 45.1448 7.504C46.0514 7.504 46.8568 7.65333 47.5608 7.952C48.2648 8.25067 48.8568 8.66667 49.3368 9.2C49.8168 9.73333 50.1794 10.3787 50.4248 11.136C50.6701 11.8933 50.7928 12.7253 50.7928 13.632V24H49.5288C49.2514 24 49.0381 23.9573 48.8888 23.872C48.7394 23.776 48.6221 23.5947 48.5368 23.328L48.2168 21.792C47.7901 22.1867 47.3741 22.5387 46.9688 22.848C46.5634 23.1467 46.1368 23.4027 45.6888 23.616C45.2408 23.8187 44.7608 23.9733 44.2488 24.08C43.7474 24.1973 43.1874 24.256 42.5688 24.256C41.9394 24.256 41.3474 24.1707 40.7928 24C40.2381 23.8187 39.7528 23.552 39.3368 23.2C38.9314 22.848 38.6061 22.4053 38.3608 21.872C38.1261 21.328 38.0088 20.688 38.0088 19.952C38.0088 19.312 38.1848 18.6987 38.5368 18.112C38.8888 17.5147 39.4594 16.9867 40.2488 16.528C41.0381 16.0693 42.0674 15.696 43.3368 15.408C44.6061 15.1093 46.1634 14.9387 48.0088 14.896V13.632C48.0088 12.3733 47.7368 11.424 47.1928 10.784C46.6488 10.1333 45.8541 9.808 44.8088 9.808C44.1048 9.808 43.5128 9.89867 43.0328 10.08C42.5634 10.2507 42.1528 10.448 41.8008 10.672C41.4594 10.8853 41.1608 11.0827 40.9048 11.264C40.6594 11.4347 40.4141 11.52 40.1688 11.52C39.9768 11.52 39.8114 11.472 39.6728 11.376C39.5341 11.2693 39.4168 11.1413 39.3207 10.992L38.8088 10.08ZM66.315 9.008C66.315 9.21067 66.2777 9.408 66.203 9.6C66.139 9.792 66.0483 9.95733 65.931 10.096L57.147 21.776H66.011V24H53.803V22.816C53.803 22.6773 53.835 22.5173 53.899 22.336C53.963 22.144 54.059 21.9627 54.187 21.792L63.019 10.032H54.299V7.792H66.315V9.008ZM78.3838 16.704C77.0718 16.7467 75.9518 16.8533 75.0238 17.024C74.1064 17.184 73.3544 17.3973 72.7678 17.664C72.1918 17.9307 71.7704 18.2453 71.5038 18.608C71.2478 18.9707 71.1198 19.376 71.1198 19.824C71.1198 20.2507 71.1891 20.6187 71.3278 20.928C71.4664 21.2373 71.6531 21.4933 71.8878 21.696C72.1331 21.888 72.4158 22.032 72.7358 22.128C73.0664 22.2133 73.4184 22.256 73.7918 22.256C74.2931 22.256 74.7518 22.208 75.1678 22.112C75.5838 22.0053 75.9731 21.856 76.3358 21.664C76.7091 21.472 77.0611 21.2427 77.3918 20.976C77.7331 20.7093 78.0638 20.4053 78.3838 20.064V16.704ZM69.1838 10.08C70.0798 9.216 71.0451 8.57067 72.0798 8.144C73.1144 7.71733 74.2611 7.504 75.5198 7.504C76.4264 7.504 77.2318 7.65333 77.9358 7.952C78.6398 8.25067 79.2318 8.66667 79.7118 9.2C80.1918 9.73333 80.5544 10.3787 80.7998 11.136C81.0451 11.8933 81.1678 12.7253 81.1678 13.632V24H79.9038C79.6264 24 79.4131 23.9573 79.2638 23.872C79.1144 23.776 78.9971 23.5947 78.9118 23.328L78.5918 21.792C78.1651 22.1867 77.7491 22.5387 77.3438 22.848C76.9384 23.1467 76.5118 23.4027 76.0638 23.616C75.6158 23.8187 75.1358 23.9733 74.6238 24.08C74.1224 24.1973 73.5624 24.256 72.9438 24.256C72.3144 24.256 71.7224 24.1707 71.1678 24C70.6131 23.8187 70.1278 23.552 69.7118 23.2C69.3064 22.848 68.9811 22.4053 68.7358 21.872C68.5011 21.328 68.3838 20.688 68.3838 19.952C68.3838 19.312 68.5598 18.6987 68.9118 18.112C69.2638 17.5147 69.8344 16.9867 70.6238 16.528C71.4131 16.0693 72.4424 15.696 73.7118 15.408C74.9811 15.1093 76.5384 14.9387 78.3838 14.896V13.632C78.3838 12.3733 78.1118 11.424 77.5678 10.784C77.0238 10.1333 76.2291 9.808 75.1838 9.808C74.4798 9.808 73.8878 9.89867 73.4078 10.08C72.9384 10.2507 72.5278 10.448 72.1758 10.672C71.8344 10.8853 71.5358 11.0827 71.2798 11.264C71.0344 11.4347 70.7891 11.52 70.5438 11.52C70.3518 11.52 70.1864 11.472 70.0478 11.376C69.9091 11.2693 69.7918 11.1413 69.6957 10.992L69.1838 10.08ZM94.29 16.704C92.978 16.7467 91.858 16.8533 90.93 17.024C90.0127 17.184 89.2607 17.3973 88.674 17.664C88.098 17.9307 87.6767 18.2453 87.41 18.608C87.154 18.9707 87.026 19.376 87.026 19.824C87.026 20.2507 87.0953 20.6187 87.234 20.928C87.3727 21.2373 87.5593 21.4933 87.794 21.696C88.0393 21.888 88.322 22.032 88.642 22.128C88.9727 22.2133 89.3247 22.256 89.698 22.256C90.1993 22.256 90.658 22.208 91.074 22.112C91.49 22.0053 91.8793 21.856 92.242 21.664C92.6153 21.472 92.9673 21.2427 93.298 20.976C93.6393 20.7093 93.97 20.4053 94.29 20.064V16.704ZM85.09 10.08C85.986 9.216 86.9513 8.57067 87.986 8.144C89.0207 7.71733 90.1673 7.504 91.426 7.504C92.3327 7.504 93.138 7.65333 93.842 7.952C94.546 8.25067 95.138 8.66667 95.618 9.2C96.098 9.73333 96.4607 10.3787 96.706 11.136C96.9513 11.8933 97.074 12.7253 97.074 13.632V24H95.81C95.5327 24 95.3193 23.9573 95.17 23.872C95.0207 23.776 94.9033 23.5947 94.818 23.328L94.498 21.792C94.0713 22.1867 93.6553 22.5387 93.25 22.848C92.8447 23.1467 92.418 23.4027 91.97 23.616C91.522 23.8187 91.042 23.9733 90.53 24.08C90.0287 24.1973 89.4687 24.256 88.85 24.256C88.2207 24.256 87.6287 24.1707 87.074 24C86.5193 23.8187 86.034 23.552 85.618 23.2C85.2127 22.848 84.8873 22.4053 84.642 21.872C84.4073 21.328 84.29 20.688 84.29 19.952C84.29 19.312 84.466 18.6987 84.818 18.112C85.17 17.5147 85.7407 16.9867 86.53 16.528C87.3193 16.0693 88.3487 15.696 89.618 15.408C90.8873 15.1093 92.4447 14.9387 94.29 14.896V13.632C94.29 12.3733 94.018 11.424 93.474 10.784C92.93 10.1333 92.1353 9.808 91.09 9.808C90.386 9.808 89.794 9.89867 89.314 10.08C88.8447 10.2507 88.434 10.448 88.082 10.672C87.7407 10.8853 87.442 11.0827 87.186 11.264C86.9407 11.4347 86.6953 11.52 86.45 11.52C86.258 11.52 86.0927 11.472 85.954 11.376C85.8153 11.2693 85.698 11.1413 85.602 10.992L85.09 10.08ZM104.116 11.04C104.628 9.93067 105.258 9.06667 106.004 8.448C106.751 7.81867 107.663 7.504 108.74 7.504C109.082 7.504 109.407 7.54133 109.716 7.616C110.036 7.69067 110.319 7.808 110.564 7.968L110.356 10.096C110.292 10.3627 110.132 10.496 109.876 10.496C109.727 10.496 109.508 10.464 109.22 10.4C108.932 10.336 108.607 10.304 108.244 10.304C107.732 10.304 107.274 10.3787 106.868 10.528C106.474 10.6773 106.116 10.9013 105.796 11.2C105.487 11.488 105.204 11.8507 104.948 12.288C104.703 12.7147 104.479 13.2053 104.276 13.76V24H101.412V7.792H103.044C103.354 7.792 103.567 7.85067 103.684 7.968C103.802 8.08533 103.882 8.288 103.924 8.576L104.116 11.04Z" fill="#6C7A58"/>
</svg>
