<svg width="105" height="26" viewBox="0 0 105 26" fill="none" xmlns="http://www.w3.org/2000/svg">
<path d="M14.0312 25H0.875V2.15625H14.0312V6.125H5.71875V11.1406H13.4531V15.1094H5.71875V21H14.0312V25ZM70.6562 25H56.8594V22.1875L64.9531 11.1719H57.3438V7.53125H70.375V10.625L62.5 21.3594H70.6562V25ZM81.2812 7.17188C83.625 7.17188 85.4219 7.68229 86.6719 8.70312C87.9219 9.72396 88.5469 11.276 88.5469 13.3594V25H85.2188L84.2969 22.625H84.1719C83.6719 23.25 83.1615 23.7604 82.6406 24.1562C82.1198 24.5521 81.5208 24.8438 80.8438 25.0312C80.1667 25.2188 79.3438 25.3125 78.375 25.3125C77.3438 25.3125 76.4167 25.1146 75.5938 24.7188C74.7812 24.3229 74.1406 23.7188 73.6719 22.9062C73.2031 22.0833 72.9688 21.0417 72.9688 19.7812C72.9688 17.9271 73.6198 16.5625 74.9219 15.6875C76.224 14.8021 78.1771 14.3125 80.7812 14.2188L83.8125 14.125V13.3594C83.8125 12.4427 83.5729 11.7708 83.0938 11.3438C82.6146 10.9167 81.9479 10.7031 81.0938 10.7031C80.25 10.7031 79.4219 10.8229 78.6094 11.0625C77.7969 11.3021 76.9844 11.6042 76.1719 11.9688L74.5938 8.75C75.5208 8.26042 76.5573 7.875 77.7031 7.59375C78.8594 7.3125 80.0521 7.17188 81.2812 7.17188ZM83.8125 16.9062L81.9688 16.9688C80.4271 17.0104 79.3542 17.2865 78.75 17.7969C78.1562 18.3073 77.8594 18.9792 77.8594 19.8125C77.8594 20.5417 78.0729 21.0625 78.5 21.375C78.9271 21.6771 79.4844 21.8281 80.1719 21.8281C81.1927 21.8281 82.0521 21.526 82.75 20.9219C83.4583 20.3177 83.8125 19.4583 83.8125 18.3438V16.9062ZM103.219 7.20312C103.458 7.20312 103.734 7.21875 104.047 7.25C104.37 7.27083 104.63 7.30208 104.828 7.34375L104.469 11.8125C104.312 11.7604 104.089 11.724 103.797 11.7031C103.516 11.6719 103.271 11.6562 103.062 11.6562C102.448 11.6562 101.849 11.7344 101.266 11.8906C100.693 12.0469 100.177 12.3021 99.7188 12.6562C99.2604 13 98.8958 13.4583 98.625 14.0312C98.3646 14.5938 98.2344 15.2865 98.2344 16.1094V25H93.4688V7.53125H97.0781L97.7812 10.4688H98.0156C98.3594 9.875 98.7865 9.33333 99.2969 8.84375C99.8177 8.34375 100.406 7.94792 101.062 7.65625C101.729 7.35417 102.448 7.20312 103.219 7.20312Z" fill="#404040"/>
<path d="M23.2031 0.6875V6.34375C23.2031 7 23.1823 7.65104 23.1406 8.29688C23.1094 8.94271 23.0677 9.44271 23.0156 9.79688H23.2031C23.6615 9.07812 24.2865 8.46875 25.0781 7.96875C25.8698 7.45833 26.8958 7.20312 28.1562 7.20312C30.1146 7.20312 31.7031 7.96875 32.9219 9.5C34.1406 11.0312 34.75 13.276 34.75 16.2344C34.75 18.224 34.4688 19.8958 33.9062 21.25C33.3438 22.5938 32.5573 23.6094 31.5469 24.2969C30.5365 24.974 29.3646 25.3125 28.0312 25.3125C26.75 25.3125 25.7396 25.0833 25 24.625C24.2604 24.1667 23.6615 23.651 23.2031 23.0781H22.875L22.0781 25H18.4375V0.6875H23.2031ZM26.625 11.0156C25.7917 11.0156 25.1302 11.1875 24.6406 11.5312C24.151 11.875 23.7917 12.3906 23.5625 13.0781C23.3438 13.7656 23.224 14.6354 23.2031 15.6875V16.2031C23.2031 17.901 23.4531 19.2031 23.9531 20.1094C24.4531 21.0052 25.3646 21.4531 26.6875 21.4531C27.6667 21.4531 28.4427 21 29.0156 20.0938C29.599 19.1875 29.8906 17.8802 29.8906 16.1719C29.8906 14.4635 29.599 13.1771 29.0156 12.3125C28.4323 11.4479 27.6354 11.0156 26.625 11.0156ZM54.5625 16.2344C54.5625 17.6927 54.3646 18.9844 53.9688 20.1094C53.5833 21.2344 53.0156 22.1875 52.2656 22.9688C51.526 23.7396 50.6302 24.3229 49.5781 24.7188C48.5365 25.1146 47.3594 25.3125 46.0469 25.3125C44.8177 25.3125 43.6875 25.1146 42.6562 24.7188C41.6354 24.3229 40.7448 23.7396 39.9844 22.9688C39.2344 22.1875 38.651 21.2344 38.2344 20.1094C37.8281 18.9844 37.625 17.6927 37.625 16.2344C37.625 14.2969 37.9688 12.6562 38.6562 11.3125C39.3438 9.96875 40.3229 8.94792 41.5938 8.25C42.8646 7.55208 44.3802 7.20312 46.1406 7.20312C47.776 7.20312 49.224 7.55208 50.4844 8.25C51.7552 8.94792 52.75 9.96875 53.4688 11.3125C54.1979 12.6562 54.5625 14.2969 54.5625 16.2344ZM42.4844 16.2344C42.4844 17.3802 42.6094 18.3438 42.8594 19.125C43.1094 19.9062 43.5 20.4948 44.0312 20.8906C44.5625 21.2865 45.2552 21.4844 46.1094 21.4844C46.9531 21.4844 47.6354 21.2865 48.1562 20.8906C48.6875 20.4948 49.0729 19.9062 49.3125 19.125C49.5625 18.3438 49.6875 17.3802 49.6875 16.2344C49.6875 15.0781 49.5625 14.1198 49.3125 13.3594C49.0729 12.5885 48.6875 12.0104 48.1562 11.625C47.625 11.2396 46.9323 11.0469 46.0781 11.0469C44.8177 11.0469 43.901 11.4792 43.3281 12.3438C42.7656 13.2083 42.4844 14.5052 42.4844 16.2344Z" fill="#1EA707"/>
</svg>
