<svg width="124" height="26" viewBox="0 0 124 26" fill="none" xmlns="http://www.w3.org/2000/svg">
<path d="M14.0312 25H0.875V2.15625H14.0312V6.125H5.71875V11.1406H13.4531V15.1094H5.71875V21H14.0312V25ZM70.1875 25H56.3906V22.1875L64.4844 11.1719H56.875V7.53125H69.9062V10.625L62.0312 21.3594H70.1875V25ZM80.8125 7.17188C83.1562 7.17188 84.9531 7.68229 86.2031 8.70312C87.4531 9.72396 88.0781 11.276 88.0781 13.3594V25H84.75L83.8281 22.625H83.7031C83.2031 23.25 82.6927 23.7604 82.1719 24.1562C81.651 24.5521 81.0521 24.8438 80.375 25.0312C79.6979 25.2188 78.875 25.3125 77.9062 25.3125C76.875 25.3125 75.9479 25.1146 75.125 24.7188C74.3125 24.3229 73.6719 23.7188 73.2031 22.9062C72.7344 22.0833 72.5 21.0417 72.5 19.7812C72.5 17.9271 73.151 16.5625 74.4531 15.6875C75.7552 14.8021 77.7083 14.3125 80.3125 14.2188L83.3438 14.125V13.3594C83.3438 12.4427 83.1042 11.7708 82.625 11.3438C82.1458 10.9167 81.4792 10.7031 80.625 10.7031C79.7812 10.7031 78.9531 10.8229 78.1406 11.0625C77.3281 11.3021 76.5156 11.6042 75.7031 11.9688L74.125 8.75C75.0521 8.26042 76.0885 7.875 77.2344 7.59375C78.3906 7.3125 79.5833 7.17188 80.8125 7.17188ZM83.3438 16.9062L81.5 16.9688C79.9583 17.0104 78.8854 17.2865 78.2812 17.7969C77.6875 18.3073 77.3906 18.9792 77.3906 19.8125C77.3906 20.5417 77.6042 21.0625 78.0312 21.375C78.4583 21.6771 79.0156 21.8281 79.7031 21.8281C80.724 21.8281 81.5833 21.526 82.2812 20.9219C82.9896 20.3177 83.3438 19.4583 83.3438 18.3438V16.9062ZM100.156 7.17188C102.5 7.17188 104.297 7.68229 105.547 8.70312C106.797 9.72396 107.422 11.276 107.422 13.3594V25H104.094L103.172 22.625H103.047C102.547 23.25 102.036 23.7604 101.516 24.1562C100.995 24.5521 100.396 24.8438 99.7188 25.0312C99.0417 25.2188 98.2188 25.3125 97.25 25.3125C96.2188 25.3125 95.2917 25.1146 94.4688 24.7188C93.6562 24.3229 93.0156 23.7188 92.5469 22.9062C92.0781 22.0833 91.8438 21.0417 91.8438 19.7812C91.8438 17.9271 92.4948 16.5625 93.7969 15.6875C95.099 14.8021 97.0521 14.3125 99.6562 14.2188L102.688 14.125V13.3594C102.688 12.4427 102.448 11.7708 101.969 11.3438C101.49 10.9167 100.823 10.7031 99.9688 10.7031C99.125 10.7031 98.2969 10.8229 97.4844 11.0625C96.6719 11.3021 95.8594 11.6042 95.0469 11.9688L93.4688 8.75C94.3958 8.26042 95.4323 7.875 96.5781 7.59375C97.7344 7.3125 98.9271 7.17188 100.156 7.17188ZM102.688 16.9062L100.844 16.9688C99.3021 17.0104 98.2292 17.2865 97.625 17.7969C97.0312 18.3073 96.7344 18.9792 96.7344 19.8125C96.7344 20.5417 96.9479 21.0625 97.375 21.375C97.8021 21.6771 98.3594 21.8281 99.0469 21.8281C100.068 21.8281 100.927 21.526 101.625 20.9219C102.333 20.3177 102.688 19.4583 102.688 18.3438V16.9062ZM122.094 7.20312C122.333 7.20312 122.609 7.21875 122.922 7.25C123.245 7.27083 123.505 7.30208 123.703 7.34375L123.344 11.8125C123.188 11.7604 122.964 11.724 122.672 11.7031C122.391 11.6719 122.146 11.6562 121.938 11.6562C121.323 11.6562 120.724 11.7344 120.141 11.8906C119.568 12.0469 119.052 12.3021 118.594 12.6562C118.135 13 117.771 13.4583 117.5 14.0312C117.24 14.5938 117.109 15.2865 117.109 16.1094V25H112.344V7.53125H115.953L116.656 10.4688H116.891C117.234 9.875 117.661 9.33333 118.172 8.84375C118.693 8.34375 119.281 7.94792 119.938 7.65625C120.604 7.35417 121.323 7.20312 122.094 7.20312Z" fill="#404040"/>
<path d="M23.2031 0.6875V6.34375C23.2031 7 23.1823 7.65104 23.1406 8.29688C23.1094 8.94271 23.0677 9.44271 23.0156 9.79688H23.2031C23.6615 9.07812 24.2865 8.46875 25.0781 7.96875C25.8698 7.45833 26.8958 7.20312 28.1562 7.20312C30.1146 7.20312 31.7031 7.96875 32.9219 9.5C34.1406 11.0312 34.75 13.276 34.75 16.2344C34.75 18.224 34.4688 19.8958 33.9062 21.25C33.3438 22.5938 32.5573 23.6094 31.5469 24.2969C30.5365 24.974 29.3646 25.3125 28.0312 25.3125C26.75 25.3125 25.7396 25.0833 25 24.625C24.2604 24.1667 23.6615 23.651 23.2031 23.0781H22.875L22.0781 25H18.4375V0.6875H23.2031ZM26.625 11.0156C25.7917 11.0156 25.1302 11.1875 24.6406 11.5312C24.151 11.875 23.7917 12.3906 23.5625 13.0781C23.3438 13.7656 23.224 14.6354 23.2031 15.6875V16.2031C23.2031 17.901 23.4531 19.2031 23.9531 20.1094C24.4531 21.0052 25.3646 21.4531 26.6875 21.4531C27.6667 21.4531 28.4427 21 29.0156 20.0938C29.599 19.1875 29.8906 17.8802 29.8906 16.1719C29.8906 14.4635 29.599 13.1771 29.0156 12.3125C28.4323 11.4479 27.6354 11.0156 26.625 11.0156ZM45.8438 7.17188C48.1875 7.17188 49.9844 7.68229 51.2344 8.70312C52.4844 9.72396 53.1094 11.276 53.1094 13.3594V25H49.7812L48.8594 22.625H48.7344C48.2344 23.25 47.724 23.7604 47.2031 24.1562C46.6823 24.5521 46.0833 24.8438 45.4062 25.0312C44.7292 25.2188 43.9062 25.3125 42.9375 25.3125C41.9062 25.3125 40.9792 25.1146 40.1562 24.7188C39.3438 24.3229 38.7031 23.7188 38.2344 22.9062C37.7656 22.0833 37.5312 21.0417 37.5312 19.7812C37.5312 17.9271 38.1823 16.5625 39.4844 15.6875C40.7865 14.8021 42.7396 14.3125 45.3438 14.2188L48.375 14.125V13.3594C48.375 12.4427 48.1354 11.7708 47.6562 11.3438C47.1771 10.9167 46.5104 10.7031 45.6562 10.7031C44.8125 10.7031 43.9844 10.8229 43.1719 11.0625C42.3594 11.3021 41.5469 11.6042 40.7344 11.9688L39.1562 8.75C40.0833 8.26042 41.1198 7.875 42.2656 7.59375C43.4219 7.3125 44.6146 7.17188 45.8438 7.17188ZM48.375 16.9062L46.5312 16.9688C44.9896 17.0104 43.9167 17.2865 43.3125 17.7969C42.7188 18.3073 42.4219 18.9792 42.4219 19.8125C42.4219 20.5417 42.6354 21.0625 43.0625 21.375C43.4896 21.6771 44.0469 21.8281 44.7344 21.8281C45.7552 21.8281 46.6146 21.526 47.3125 20.9219C48.0208 20.3177 48.375 19.4583 48.375 18.3438V16.9062Z" fill="#1EA707"/>
</svg>
