<svg width="104" height="104" viewBox="0 0 104 104" fill="none" xmlns="http://www.w3.org/2000/svg">
<path d="M21.667 26H82.3337C84.717 26 86.667 24.05 86.667 21.6667C86.667 19.2834 84.717 17.3334 82.3337 17.3334H21.667C19.2837 17.3334 17.3337 19.2834 17.3337 21.6667C17.3337 24.05 19.2837 26 21.667 26ZM87.3603 33.8C86.9703 31.8067 85.1937 30.3334 83.1137 30.3334H20.887C18.807 30.3334 17.0303 31.8067 16.6403 33.8L12.307 55.4667C11.787 58.1534 13.8237 60.6667 16.5537 60.6667H17.3337V82.3334C17.3337 84.7167 19.2837 86.6667 21.667 86.6667H56.3337C58.717 86.6667 60.667 84.7167 60.667 82.3334V60.6667H78.0003V82.3334C78.0003 84.7167 79.9503 86.6667 82.3337 86.6667C84.717 86.6667 86.667 84.7167 86.667 82.3334V60.6667H87.447C90.177 60.6667 92.2137 58.1534 91.6937 55.4667L87.3603 33.8ZM52.0003 78H26.0003V60.6667H52.0003V78Z" fill="#00897B"/>
</svg>
