<svg width="92" height="93" viewBox="0 0 92 93" fill="none" xmlns="http://www.w3.org/2000/svg">
<path d="M65.167 32.7084C68.3426 32.7084 70.917 30.134 70.917 26.9584C70.917 23.7827 68.3426 21.2084 65.167 21.2084C61.9914 21.2084 59.417 23.7827 59.417 26.9584C59.417 30.134 61.9914 32.7084 65.167 32.7084Z" fill="#808080"/>
<path d="M61.3333 11.625C71.9133 11.625 80.5 20.2117 80.5 30.7917V61.4583C80.5 72.0383 71.9133 80.625 61.3333 80.625H30.6667C20.0867 80.625 11.5 72.0383 11.5 61.4583V30.7917C11.5 20.2117 20.0867 11.625 30.6667 11.625H46H61.3333Z" stroke="#808080" stroke-width="5.75" stroke-linecap="round" stroke-linejoin="round"/>
<path d="M46.0003 30.7916C54.472 30.7916 61.3337 37.6533 61.3337 46.125C61.3337 54.5966 54.472 61.4583 46.0003 61.4583C37.5287 61.4583 30.667 54.5966 30.667 46.125C30.667 37.6533 37.5287 30.7916 46.0003 30.7916Z" stroke="#808080" stroke-width="5.75" stroke-linecap="round" stroke-linejoin="round"/>
</svg>
