<svg width="18" height="18" viewBox="0 0 18 18" fill="none" xmlns="http://www.w3.org/2000/svg">
<g clip-path="url(#clip0_390_375)">
<path d="M15.4 9.91082V14.8667H16.1334V16.3334H1.4667V14.8667H2.20003V9.91082C1.74857 9.60949 1.37849 9.20135 1.12264 8.72265C0.866781 8.24394 0.733069 7.70948 0.733368 7.16669C0.733368 6.56022 0.897635 5.97575 1.19757 5.47782L3.18637 2.03335C3.25073 1.92188 3.3433 1.8293 3.45478 1.76494C3.56626 1.70058 3.69271 1.66669 3.82143 1.66669H13.7794C13.9081 1.66669 14.0345 1.70058 14.146 1.76494C14.2575 1.8293 14.3501 1.92188 14.4144 2.03335L16.3959 5.46682C16.8334 6.19346 16.974 7.06074 16.7885 7.88839C16.6031 8.71603 16.1058 9.44037 15.4 9.91082ZM13.9334 10.4462C13.4292 10.5027 12.9187 10.4422 12.4417 10.2692C11.9647 10.0962 11.5341 9.81545 11.1834 9.44882C10.8755 9.77081 10.5056 10.0271 10.096 10.2021C9.68636 10.3772 9.24551 10.4675 8.80003 10.4674C8.35467 10.4676 7.91388 10.3776 7.50425 10.2028C7.09463 10.028 6.72467 9.77201 6.4167 9.45029C6.06589 9.81678 5.63524 10.0974 5.15827 10.2702C4.68129 10.4431 4.17086 10.5035 3.6667 10.4469V14.8667H13.9334V10.4462ZM4.2453 3.13335L2.4611 6.22289C2.28772 6.65126 2.28252 7.12931 2.44653 7.56135C2.61054 7.9934 2.93167 8.34757 3.34563 8.55298C3.7596 8.75838 4.23587 8.79988 4.67913 8.66915C5.12238 8.53843 5.49991 8.24513 5.73617 7.84795C5.98183 7.23415 6.85084 7.23415 7.09724 7.84795C7.23312 8.18853 7.46801 8.48053 7.77155 8.68623C8.0751 8.89193 8.43335 9.00189 8.80003 9.00189C9.16671 9.00189 9.52497 8.89193 9.82852 8.68623C10.1321 8.48053 10.367 8.18853 10.5028 7.84795C10.7485 7.23415 11.6175 7.23415 11.8639 7.84795C11.9591 8.08222 12.1017 8.29426 12.2827 8.47076C12.4638 8.64725 12.6794 8.78439 12.916 8.87354C13.1527 8.96269 13.4052 9.00193 13.6577 8.98879C13.9102 8.97565 14.1573 8.91042 14.3833 8.7972C14.6094 8.68398 14.8097 8.52521 14.9714 8.33088C15.1332 8.13654 15.253 7.91085 15.3234 7.66798C15.3937 7.4251 15.4131 7.1703 15.3802 6.91959C15.3473 6.66888 15.2629 6.42768 15.1324 6.21115L13.354 3.13335H4.2453Z" fill="black"/>
</g>
<defs>
<clipPath id="clip0_390_375">
<rect width="17.6" height="17.6" fill="white" transform="translate(6.10352e-05 0.200012)"/>
</clipPath>
</defs>
</svg>
