<svg width="92" height="92" viewBox="0 0 92 92" fill="none" xmlns="http://www.w3.org/2000/svg">
<path d="M46.1666 0.333344C71.4803 0.333344 91.9999 20.8529 91.9999 46.1666C91.9999 71.4804 71.4803 91.9999 46.1666 91.9999C38.0667 92.0139 30.1093 89.8703 23.1125 85.7895L0.351656 91.9999L6.54832 69.2299C2.46438 62.2309 0.319128 54.27 0.333322 46.1666C0.333322 20.8529 20.8529 0.333344 46.1666 0.333344ZM30.5466 24.625L29.63 24.6617C29.0373 24.7025 28.4582 24.8582 27.925 25.12C27.428 25.4019 26.9742 25.7539 26.5775 26.165C26.0275 26.6829 25.7158 27.1321 25.3812 27.5675C23.6859 29.7716 22.7732 32.4777 22.7871 35.2583C22.7962 37.5041 23.3829 39.6904 24.2996 41.7346C26.1741 45.8687 29.2587 50.2458 33.3287 54.302C34.3095 55.2783 35.272 56.2591 36.3079 57.1712C41.3653 61.6235 47.3916 64.8344 53.9079 66.5487L56.5112 66.9475C57.3591 66.9933 58.207 66.9291 59.0595 66.8879C60.3941 66.8175 61.6972 66.4561 62.8774 65.8291C63.4771 65.519 64.0629 65.1826 64.6329 64.8208C64.6329 64.8208 64.8269 64.6894 65.2058 64.4083C65.8245 63.95 66.2049 63.6245 66.7183 63.0883C67.1033 62.6911 67.4241 62.2297 67.6808 61.7041C68.0383 60.957 68.3958 59.5316 68.5424 58.3445C68.6524 57.437 68.6203 56.942 68.6066 56.635C68.5883 56.1445 68.1803 55.6358 67.7358 55.4204L65.0683 54.2241C65.0683 54.2241 61.0808 52.487 58.6424 51.3779C58.3872 51.2668 58.1138 51.2031 57.8358 51.19C57.5221 51.1572 57.2051 51.1922 56.9062 51.2926C56.6073 51.393 56.3335 51.5565 56.1033 51.772C56.0804 51.7629 55.7733 52.0241 52.4595 56.0391C52.2693 56.2947 52.0073 56.4879 51.707 56.594C51.4066 56.7001 51.0814 56.7144 50.7729 56.635C50.4741 56.5553 50.1816 56.4543 49.8974 56.3325C49.3291 56.0941 49.132 56.0025 48.7424 55.8375C46.111 54.6912 43.6753 53.1401 41.5237 51.2404C40.9462 50.7362 40.41 50.1862 39.86 49.6545C38.0569 47.9276 36.4855 45.9741 35.185 43.8429L34.9145 43.4075C34.7232 43.1132 34.5664 42.7979 34.447 42.4679C34.2729 41.7941 34.7266 41.2533 34.7266 41.2533C34.7266 41.2533 35.8404 40.0341 36.3583 39.3741C36.8625 38.7325 37.2887 38.1091 37.5637 37.6646C38.1045 36.7937 38.2741 35.9 37.99 35.2079C36.7066 32.0729 35.3805 28.9547 34.0116 25.8533C33.7412 25.2392 32.9391 24.7992 32.2104 24.7121C31.9629 24.6815 31.7154 24.6571 31.4679 24.6387C30.8525 24.6034 30.2354 24.6096 29.6208 24.6571L30.5466 24.625Z" fill="white"/>
</svg>
